<?xml version="1.0" encoding="UTF-8"?> <svg xmlns="http://www.w3.org/2000/svg" xmlns:xlink="http://www.w3.org/1999/xlink" id="Слой_1" data-name="Слой 1" viewBox="0 0 641.3 440.72"><defs><style>.cls-1{fill:none;}.cls-2{fill:#c2deff;}.cls-24,.cls-3{fill:#fff;}.cls-4{opacity:0.5;}.cls-5{fill:#ebebeb;}.cls-6{fill:#e0e0e0;}.cls-7{fill:#2280fc;}.cls-8{fill:#455163;}.cls-9{fill:#fafafa;}.cls-10{fill:#263238;}.cls-11{clip-path:url(#clip-path);}.cls-12{fill:#ff881d;}.cls-13{opacity:0.31;}.cls-14{fill:#913737;}.cls-15{opacity:0.4;}.cls-16{fill:#ffbe9d;}.cls-17{fill:#232323;}.cls-18{opacity:0.2;}.cls-19{opacity:0.3;}.cls-20{fill:#455a64;}.cls-21{fill:#eb996e;}.cls-22{clip-path:url(#clip-path-2);}.cls-23{opacity:0.21;}.cls-23,.cls-24{isolation:isolate;}.cls-24{opacity:0.71;}.cls-25{clip-path:url(#clip-path-3);}.cls-26{opacity:0.8;}.cls-27{opacity:0.7;}</style><clipPath id="clip-path"><path class="cls-1" d="M315.63,143s-13.31-.18-16.23,4.17-15,31.42-15,31.42l18.86,9.83,4.07-11.61L314,201c-7.58,6-18.32,60.63-16.18,83.64l70.88.23s.49-63.84-18.68-84.83l4.5-25.35,4.32,12.37,20-8.3L363.7,151.74a14.57,14.57,0,0,0-12.7-7.5h-4.91S344,162.36,330.85,162,315.63,143,315.63,143Z"></path></clipPath><clipPath id="clip-path-2"><path class="cls-1" d="M172.74,200.4l16.85-12.24,21.9,25.93a11.09,11.09,0,0,1,2.25,10l-7.38,28a9.38,9.38,0,0,1-9.73,7h0a9.38,9.38,0,0,1-8.69-10q0-.29.06-.58l3.23-25.25Z"></path></clipPath><clipPath id="clip-path-3"><path class="cls-1" d="M181.44,191.43l16.85-12.19,21.9,25.93a11.1,11.1,0,0,1,2.25,10l-7.38,28a9.38,9.38,0,0,1-9.73,7h0a9.38,9.38,0,0,1-8.7-10q0-.28.05-.55l3.25-25.37Z"></path></clipPath></defs><title>Монтажная область 1</title><g id="Background_Complete" data-name="Background Complete"><path class="cls-2" d="M539.59,226.83,380,198.37a7.54,7.54,0,0,1-6.1-8.75h0L391.48,91a7.54,7.54,0,0,1,8.75-6.1h0l159.61,28.46a7.54,7.54,0,0,1,6.1,8.75h0l-17.58,98.6a7.54,7.54,0,0,1-8.74,6.1Z"></path><path class="cls-3" d="M536.83,136.51a12.23,12.23,0,1,1-9.9-14.19,12.23,12.23,0,0,1,9.9,14.19Z"></path><path class="cls-3" d="M539.32,149.69a12.73,12.73,0,1,1,12.51-10.5A12.73,12.73,0,0,1,539.32,149.69Zm0-24.47A11.73,11.73,0,1,0,550.87,139h0a11.74,11.74,0,0,0-11.58-13.77Z"></path><path class="cls-3" d="M395.28,158.94l-1.73,9.69-1-.18,1.57-8.8-2.28-.41.16-.89Z"></path><path class="cls-3" d="M403.68,169.52l-.16.89-6.8-1.17.13-.71,4.73-3.23c1.29-.88,1.61-1.5,1.73-2.16.2-1.12-.47-2-2-2.22a3.34,3.34,0,0,0-2.84.61l-.6-.73a4.42,4.42,0,0,1,3.68-.77c2,.35,3,1.57,2.74,3.19-.17.93-.6,1.71-2.13,2.75l-3.87,2.65Z"></path><path class="cls-3" d="M414.17,169.67l-1.94-.35-.45,2.55-1-.18.45-2.55-5.46-1,.13-.72,6.28-5.5,1.11.2-6.07,5.37,4.21.75.4-2.24,1,.17-.4,2.24,1.94.35Z"></path><path class="cls-3" d="M429,172.32l-1.94-.35-.45,2.55-1-.18.45-2.55-5.46-1,.13-.72,6.28-5.5,1.11.2L422,170.14l4.21.75.4-2.24,1,.17-.4,2.24,1.94.35Z"></path><path class="cls-3" d="M437.53,173.52c-.29,1.65-1.67,2.73-4,2.31a5.07,5.07,0,0,1-3.25-1.86l.63-.7a4.26,4.26,0,0,0,2.77,1.65c1.65.29,2.66-.35,2.87-1.53s-.42-2.16-2.88-2.6l-2.06-.37,1.36-4.77,5.3.94-.16.89-4.43-.79-.88,3,1.25.22C436.93,170.46,437.83,171.81,437.53,173.52Z"></path><path class="cls-3" d="M447.11,175.19a3.06,3.06,0,0,1-3.57,2.44l-.27-.06c-2.57-.46-3.65-2.49-3.11-5.55.59-3.29,2.69-4.69,5.32-4.22a4.51,4.51,0,0,1,2.2.94l-.54.73a3.45,3.45,0,0,0-1.8-.79c-2.09-.37-3.67.73-4.14,3.36,0,.22-.08.5-.1.8a3.14,3.14,0,0,1,3.26-1.13C446.28,172,447.42,173.42,447.11,175.19Zm-1-.15c.23-1.27-.57-2.26-2.06-2.52a2.28,2.28,0,0,0-2.83,1.54l0,.13c-.19,1.07.52,2.23,2.19,2.53a2.15,2.15,0,0,0,2.75-1.68Z"></path><path class="cls-3" d="M460.34,177.66c-.29,1.62-1.69,2.65-4,2.24a5.11,5.11,0,0,1-3.26-1.87l.62-.7a4.31,4.31,0,0,0,2.8,1.66c1.6.29,2.62-.3,2.84-1.51s-.47-2.07-2.27-2.39l-.69-.12.13-.73,3.28-2.88-5-.88.16-.89,6.23,1.11-.13.71-3.35,3C459.77,174.83,460.62,176.11,460.34,177.66Z"></path><path class="cls-3" d="M470.07,179.24a3.06,3.06,0,0,1-3.56,2.45l-.28-.06c-2.57-.46-3.65-2.49-3.11-5.55.59-3.29,2.69-4.69,5.32-4.22a4.51,4.51,0,0,1,2.2.94l-.54.73a3.45,3.45,0,0,0-1.8-.79c-2.09-.37-3.67.73-4.14,3.36,0,.22-.08.5-.1.8a3.14,3.14,0,0,1,3.26-1.13C469.25,176.14,470.39,177.51,470.07,179.24Zm-1-.15c.23-1.27-.57-2.26-2.06-2.52a2.28,2.28,0,0,0-2.83,1.54l0,.13c-.19,1.07.51,2.23,2.19,2.53a2.15,2.15,0,0,0,2.75-1.64Z"></path><path class="cls-3" d="M480.19,174.08l-.13.71L474.41,183l-1.08-.19,5.55-8.09-5-.89-.32,1.81-1-.18.48-2.7Z"></path><path class="cls-3" d="M494,176.54l-.13.71-5.65,8.26-1.08-.19,5.55-8.09-5-.89-.32,1.81-1-.18.48-2.7Z"></path><path class="cls-3" d="M502.32,185.24c-.31,1.72-2,2.52-4.26,2.11s-3.55-1.73-3.24-3.45a2.45,2.45,0,0,1,2.29-2,2.22,2.22,0,0,1-1.14-2.4c.28-1.58,1.8-2.32,3.85-2s3.24,1.59,3,3.17a2.23,2.23,0,0,1-1.93,1.85A2.48,2.48,0,0,1,502.32,185.24Zm-1-.2c.21-1.19-.68-2.12-2.4-2.43s-2.86.26-3.07,1.45.66,2.13,2.38,2.44,2.86-.26,3.07-1.47ZM499,181.82c1.51.27,2.53-.25,2.72-1.3s-.64-1.93-2.09-2.19-2.51.24-2.7,1.32S497.54,181.55,499,181.82Z"></path><path class="cls-3" d="M512.12,184.68c-.59,3.29-2.69,4.69-5.32,4.22a4.51,4.51,0,0,1-2.2-.94l.54-.73a3.46,3.46,0,0,0,1.8.79c2.09.37,3.67-.73,4.14-3.36,0-.22.08-.5.1-.8a3.15,3.15,0,0,1-3.26,1.13c-1.92-.34-3.06-1.72-2.75-3.49a3.06,3.06,0,0,1,3.56-2.45l.28.06C511.59,179.59,512.67,181.62,512.12,184.68Zm-1-2.17c.19-1.07-.51-2.23-2.19-2.53a2.15,2.15,0,0,0-2.74,1.68c-.23,1.27.57,2.26,2.06,2.52a2.28,2.28,0,0,0,2.82-1.56l0-.11Z"></path><path class="cls-3" d="M522.79,181.67l-1.73,9.69-1-.18,1.57-8.8-2.28-.41.16-.89Z"></path><path class="cls-3" d="M531.18,192.24l-.16.89-6.79-1.21.13-.71,4.73-3.23c1.29-.88,1.61-1.5,1.73-2.16.2-1.12-.47-2-2-2.22a3.34,3.34,0,0,0-2.87.64l-.6-.73a4.42,4.42,0,0,1,3.68-.77c2,.35,3,1.57,2.74,3.19-.17.93-.6,1.7-2.13,2.75l-3.87,2.65Z"></path><path class="cls-3" d="M540.21,191.9c-.29,1.62-1.69,2.65-4,2.24a5.11,5.11,0,0,1-3.26-1.87l.62-.7a4.31,4.31,0,0,0,2.8,1.66c1.61.29,2.62-.3,2.84-1.51s-.47-2.07-2.27-2.39l-.69-.12.13-.73,3.28-2.88-5-.88.16-.89,6.23,1.11-.13.71-3.35,3C539.64,189.07,540.48,190.35,540.21,191.9Z"></path><rect class="cls-3" x="500.38" y="158.23" width="4.27" height="78.8" transform="translate(219.74 657.66) rotate(-79.89)"></rect><rect class="cls-3" x="517.77" y="189.19" width="4.27" height="40.41" transform="translate(222.5 684.47) rotate(-79.89)"></rect><g class="cls-4"><rect class="cls-5" x="396.95" y="123.77" width="24.7" height="33.06" rx="4.96" ry="4.96" transform="matrix(0.18, -0.98, 0.98, 0.18, 199.34, 518.61)"></rect></g><path class="cls-6" d="M392.06,142.81l.28-1.56,16.76,3a3.56,3.56,0,1,0,1.61-6.94l-.36-.06-16.76-3,.28-1.56,16.76,3a5.15,5.15,0,1,1-1.81,10.14Z"></path><rect class="cls-6" x="418.96" y="136.68" width="1.58" height="11.68" transform="matrix(0.18, -0.98, 0.98, 0.18, 205.43, 530.55)"></rect><rect class="cls-3" x="440.17" y="74.44" width="7.3" height="85.03" transform="matrix(0.18, -0.98, 0.98, 0.18, 250.78, 533.36)"></rect><rect class="cls-2" x="120.88" y="12.84" width="141.74" height="146.24" rx="8.76" ry="8.76" transform="translate(-14.88 47.72) rotate(-13.66)"></rect><path class="cls-3" d="M226.17,106.84a1,1,0,0,1-.27.1l-.81.23L222,108l-11.59,2.92-39,9.57-.27.07-.1-.26L168.54,114,150.74,68.8l.23.12-10.4,2.43L137.8,72l-.72.15h-.25a.84.84,0,0,1,.23-.09l.7-.2,2.75-.72,10.36-2.61H151l.07.16,18,45.16,2.47,6.24-.37-.19,39-9.37,11.63-2.73,3.15-.71.82-.17A1,1,0,0,1,226.17,106.84Z"></path><path class="cls-3" d="M167,109.24l.27-.09.8-.22,3.12-.81,11.71-2.94,40.44-9.94-.23.32-1.46-22.72-.75-11.93.39.29-47.7,11.48L159.45,76l-3.82.87-1,.21-.34.05a1.54,1.54,0,0,1,.33-.11l1-.27,3.79-1,14.07-3.53,47.65-11.69.36-.09v.38l.76,11.93,1.43,22.73v.26l-.25.06L183,105.5l-11.75,2.74-3.15.71-.82.17Z"></path><path class="cls-3" d="M188.67,131.71c-.06,0-.17-.48-.61-1.24a5.63,5.63,0,0,0-2.71-2.39,5.37,5.37,0,1,0,2,8.37,5.63,5.63,0,0,0,1.31-3.36c0-.88-.09-1.37,0-1.38s.07.11.13.34a4.21,4.21,0,0,1,.15,1,5.61,5.61,0,0,1-1.21,3.64,5.85,5.85,0,0,1-5.2,2.2,5.91,5.91,0,0,1-2.63-10.83,5.85,5.85,0,0,1,5.63-.43,5.61,5.61,0,0,1,2.75,2.68,4.19,4.19,0,0,1,.35,1C188.68,131.58,188.69,131.7,188.67,131.71Z"></path><path class="cls-3" d="M223.95,123.14c-.06,0-.17-.47-.61-1.24a5.63,5.63,0,0,0-2.71-2.39,5.37,5.37,0,1,0,2,8.37,5.63,5.63,0,0,0,1.31-3.36c0-.88-.09-1.37,0-1.38s.07.11.13.34a4.21,4.21,0,0,1,.15,1,5.61,5.61,0,0,1-1.21,3.64,5.85,5.85,0,0,1-5.2,2.2,5.91,5.91,0,0,1-2.63-10.83,5.85,5.85,0,0,1,5.63-.43,5.62,5.62,0,0,1,2.75,2.68,4.2,4.2,0,0,1,.35,1C224,123,224,123.13,223.95,123.14Z"></path><path class="cls-3" d="M232.5,52.24A16.1,16.1,0,1,1,213.05,40.4h0A16.1,16.1,0,0,1,232.5,52.24Z"></path><path class="cls-6" d="M223.69,50a17.27,17.27,0,0,1-1.45,3c-1,1.81-2.34,4.29-3.89,7l-1.67,2.89-.15.25-.26-.14c-2.05-1.08-3.81-2-5-2.73A9.76,9.76,0,0,1,209.35,59a9.77,9.77,0,0,1,2.09.87c1.29.6,3.08,1.49,5.15,2.53l-.4.12,1.64-2.91c1.55-2.72,3-5.16,4.06-6.91A17.26,17.26,0,0,1,223.69,50Z"></path></g><g id="Floor"><path class="cls-7" d="M641.3,435.77c0,.14-143.57.26-320.63.26S0,435.92,0,435.77s143.54-.26,320.66-.26S641.3,435.63,641.3,435.77Z"></path></g><g id="Device"><path class="cls-8" d="M396.35,436l-132.86-.61a28.94,28.94,0,0,1-28.81-29.06l1.4-333.06a28.94,28.94,0,0,1,29.06-28.82h0L398,45a28.94,28.94,0,0,1,28.81,29.06L425.4,407.15A28.94,28.94,0,0,1,396.35,436Z"></path><path class="cls-9" d="M397.83,56.5l-25.76-.12a6.4,6.4,0,0,0-6.28,6.51v4.67a6.4,6.4,0,0,1-6.28,6.51l-50.21-.23a6.4,6.4,0,0,1-6.3-6.5s0-.07,0-.1V62.57A6.41,6.41,0,0,0,296.77,56h-9.06l-22.55-.1A20.27,20.27,0,0,0,244.8,76.08h0l-1.3,325.11a20.27,20.27,0,0,0,20.18,20.36h0l132.6.61A20.27,20.27,0,0,0,416.64,402h0L418,76.85A20.27,20.27,0,0,0,397.83,56.5Z"></path><path class="cls-10" d="M400.73,88.5a22.46,22.46,0,0,1-3.33.17c-2.07,0-5,.08-8.19.08H389v-.22l-.19-1.36c-.56-4-1-7.54-1.28-9.84l.16.14a18.78,18.78,0,0,1-3-.16,18.8,18.8,0,0,1,3-.16h.14v.15c.38,2.29.91,5.84,1.47,9.82l.19,1.36-.26-.22c3.24,0,6.12,0,8.19.08A22.48,22.48,0,0,1,400.73,88.5Z"></path><path class="cls-10" d="M388.88,86.11a3.55,3.55,0,0,1,.89-.08l2.46-.07c2.1,0,5.07-.08,8.5-.09l-.25.21.8-4.58.43-2.4.25.3c-4,0-7.5,0-10-.09l-3-.07a4.73,4.73,0,0,1-1.08-.09A4.72,4.72,0,0,1,389,79l3-.08c2.52,0,6-.08,10-.09h.31l0,.3-.42,2.4L401,86.15v.21h-.21c-3.43,0-6.39,0-8.5-.09l-2.52,0A3.54,3.54,0,0,1,388.88,86.11Z"></path><path class="cls-10" d="M392.1,91.62c-.08,0-.09-.45-.57-.77a1,1,0,0,0-.9-.09.92.92,0,0,0,0,1.71,1,1,0,0,0,.9-.09c.48-.32.48-.79.57-.77s.08.1.06.31a1.15,1.15,0,0,1-.41.76,1.32,1.32,0,0,1-1.28.25,1.38,1.38,0,0,1,0-2.61,1.32,1.32,0,0,1,1.28.25,1.15,1.15,0,0,1,.41.76C392.17,91.52,392.13,91.62,392.1,91.62Z"></path><path class="cls-10" d="M399.51,91.62c-.08,0-.09-.45-.57-.77a1,1,0,0,0-.9-.09.92.92,0,0,0,0,1.71,1,1,0,0,0,.9-.09c.48-.32.48-.79.57-.77s.08.1.06.31a1.15,1.15,0,0,1-.41.76,1.32,1.32,0,0,1-1.28.25,1.38,1.38,0,0,1,0-2.61,1.32,1.32,0,0,1,1.28.25,1.15,1.15,0,0,1,.41.76C399.59,91.52,399.54,91.62,399.51,91.62Z"></path><path class="cls-10" d="M282.59,89.71a94.54,94.54,0,0,1-9.91.26,94.54,94.54,0,0,1-9.91-.26,94.54,94.54,0,0,1,9.91-.26A94.54,94.54,0,0,1,282.59,89.71Z"></path><path class="cls-10" d="M282.59,86a94.51,94.51,0,0,1-9.91.26,94.51,94.51,0,0,1-9.91-.26,94.59,94.59,0,0,1,9.91-.26A94.59,94.59,0,0,1,282.59,86Z"></path><path class="cls-10" d="M282.59,82.24a94.51,94.51,0,0,1-9.91.26,94.51,94.51,0,0,1-9.91-.26,94.59,94.59,0,0,1,9.91-.26A94.59,94.59,0,0,1,282.59,82.24Z"></path><g class="cls-11"><path class="cls-12" d="M315.63,143s-13.31-.18-16.23,4.17-15,31.42-15,31.42l18.86,9.83,4.07-11.61L314,201c-7.58,6-18.32,60.63-16.18,83.64l70.88.23s.49-63.84-18.68-84.83l4.5-25.35,4.32,12.37,20-8.3L363.7,151.74a14.57,14.57,0,0,0-12.7-7.5h-4.91S344,162.36,330.85,162,315.63,143,315.63,143Z"></path><path class="cls-9" d="M383.8,229.06a1.5,1.5,0,0,1,0-.32l-.07-.94a9.93,9.93,0,0,0-.18-1.52,14.53,14.53,0,0,0-.42-2,19,19,0,0,0-2.21-5.24,19.63,19.63,0,0,0-23.58-8.35,18.41,18.41,0,0,0-5,2.67,17.92,17.92,0,0,0-4.14,4.16,19.67,19.67,0,0,0-3.81,11.57,21,21,0,0,0,1,6.18,19,19,0,0,0,2.8,5.4,17.93,17.93,0,0,0,4.14,4.16,18.41,18.41,0,0,0,5,2.67,19.69,19.69,0,0,0,23.58-8.35,19,19,0,0,0,2.21-5.24,14.51,14.51,0,0,0,.42-2,9.91,9.91,0,0,0,.18-1.52l.07-.94a1.5,1.5,0,0,1,0-.32,1.46,1.46,0,0,1,0,.32v.95a9.2,9.2,0,0,1-.13,1.53,14,14,0,0,1-.38,2.07,18.76,18.76,0,0,1-2.16,5.33,19.94,19.94,0,0,1-24,8.65,18.84,18.84,0,0,1-5.13-2.74,18.37,18.37,0,0,1-4.25-4.26,19.43,19.43,0,0,1-2.88-5.53,21.41,21.41,0,0,1-1-6.34,20.13,20.13,0,0,1,3.92-11.87A18.37,18.37,0,0,1,352,213a18.84,18.84,0,0,1,5.09-2.72,19.94,19.94,0,0,1,24,8.65,18.76,18.76,0,0,1,2.16,5.34,14,14,0,0,1,.38,2.07,9.2,9.2,0,0,1,.13,1.53v.95A1.46,1.46,0,0,1,383.8,229.06Z"></path><path class="cls-9" d="M321.35,184.52a25.11,25.11,0,0,0-.56-3.55,14.61,14.61,0,0,0-5.34-8,14.4,14.4,0,1,0,4.94,16.26q.22-.62.39-1.26a25.12,25.12,0,0,0,.56-3.55.81.81,0,0,1,0,.24v.7a6.72,6.72,0,0,1-.09,1.13A10.31,10.31,0,0,1,321,188a13.84,13.84,0,0,1-1.59,4,14.89,14.89,0,1,1,0-15.13,13.84,13.84,0,0,1,1.59,4,10.29,10.29,0,0,1,.28,1.53,6.72,6.72,0,0,1,.09,1.13v.7A.81.81,0,0,1,321.35,184.52Z"></path><path class="cls-9" d="M321.34,270.84a3.54,3.54,0,0,0-.24-1.07,4.48,4.48,0,0,0-1.65-2.35,4.27,4.27,0,1,0,0,6.85,4.48,4.48,0,0,0,1.65-2.35c.19-.67.19-1.07.24-1.07s0,.1,0,.29a3.33,3.33,0,0,1-.08.83,4.47,4.47,0,0,1-1.62,2.6,4.66,4.66,0,0,1-4.44.73,4.71,4.71,0,0,1,0-8.89,4.66,4.66,0,0,1,4.44.73,4.47,4.47,0,0,1,1.62,2.6,3.33,3.33,0,0,1,.08.83C321.37,270.74,321.36,270.84,321.34,270.84Z"></path><path class="cls-9" d="M313.55,155.7a3.54,3.54,0,0,0-.24-1.07,4.48,4.48,0,0,0-1.65-2.35,4.27,4.27,0,1,0,0,6.85,4.48,4.48,0,0,0,1.65-2.35c.19-.67.19-1.07.24-1.07s0,.1,0,.29a3.33,3.33,0,0,1-.08.83,4.47,4.47,0,0,1-1.62,2.6,4.66,4.66,0,0,1-4.44.73,4.71,4.71,0,0,1,0-8.89,4.66,4.66,0,0,1,4.44.73,4.47,4.47,0,0,1,1.62,2.6,3.33,3.33,0,0,1,.08.83C313.58,155.6,313.57,155.7,313.55,155.7Z"></path><path class="cls-9" d="M328.19,249.31a3.17,3.17,0,0,1-.09-.43l-.22-1.2-.77-4.5-2.61-15.94.26.19-22.06,3.51.22-.29h0V231l.06.38.12.75.24,1.5.46,3,.89,5.71,1.61,10.41-.26-.19,16-2.4,4.52-.65,1.21-.16h.43l-.38.08-1.16.21-4.45.76-16,2.64h-.22v-.22l-1.66-10.41-.9-5.7-.47-2.95-.24-1.5-.12-.75-.06-.38v-.36h0l.22-.3L324.74,227H325v.22l2.41,16.09.64,4.47.16,1.16A2,2,0,0,1,328.19,249.31Z"></path><path class="cls-9" d="M355.16,191.59a4.25,4.25,0,0,1,.26-.44l.76-1.21,2.88-4.53,10.27-16,.07.31-22.06-14.33.36-.07h0l-.06.09-.12.19-.25.38-.49.75-1,1.49-2,3-3.72,5.69-6.8,10.38-.07-.31,15.86,10.47,4.47,3,1.18.8.41.3a2.93,2.93,0,0,1-.4-.23l-1.18-.73-4.49-2.85L333,177.42l-.19-.12.12-.19,6.75-10.41,3.71-5.7,1.92-2.95,1-1.5.49-.75.25-.38.12-.19.06-.09h0l.36-.08,22,14.39.19.12-.12.19-10.55,16-3,4.43-.78,1.15Z"></path><path class="cls-9" d="M340.26,258.88l-.09.17-.25.46-1,1.75-3.63,6.47c-3.07,5.46-7.54,13.24-12.75,22.31l-.21-.37h35.84L358,290c-5.21-9.07-9.68-16.85-12.76-22.31l-3.62-6.49-1-1.75-.25-.46-.09-.17s.12.17.34.55l1,1.67,3.78,6.38c3.27,5.53,7.76,13.27,13,22.32l.21.37H321.92l.21-.37c5.25-9,9.74-16.79,13-22.32l3.78-6.38,1-1.67C340.15,259.06,340.26,258.87,340.26,258.88Z"></path><path class="cls-9" d="M326,201.71a3.8,3.8,0,0,1,.13.4l.32,1.09,1.16,4c1,3.35,2.29,8.21,3.83,13.88l-.41-.11,7.1-7.12,7.12-7.1.11.41c-5.67-1.54-10.53-2.86-13.88-3.83l-4-1.16-1.09-.32-.4-.13.34.07,1,.25,4,1c3.53.87,8.39,2.16,14.06,3.66l.41.11-.3.3-7.1,7.12-7.12,7.1-.3.3-.08-.39c-1.5-5.67-2.78-10.53-3.66-14.06l-1-4-.25-1.05A1.88,1.88,0,0,1,326,201.71Z"></path></g><path class="cls-10" d="M350.32,200.19c0,.14-8,.46-18,.7s-18,.32-18,.18,8-.46,18-.7S350.32,200,350.32,200.19Z"></path><path class="cls-10" d="M301.39,160.36a85.76,85.76,0,0,1,3.35,8.83,85.74,85.74,0,0,1,2.86,9,85.75,85.75,0,0,1-3.35-8.83A85.78,85.78,0,0,1,301.39,160.36Z"></path><path class="cls-10" d="M356.34,161.6a15,15,0,0,1-.19,2.88c-.19,1.77-.51,4.21-.94,6.88s-.89,5.09-1.26,6.83a15,15,0,0,1-.72,2.79,16.63,16.63,0,0,1,.36-2.86l1.11-6.88,1.09-6.85A16.65,16.65,0,0,1,356.34,161.6Z"></path><path class="cls-10" d="M318.21,212.91a5.12,5.12,0,0,1-.38-1.9,14.7,14.7,0,0,1,2.22-9,5.13,5.13,0,0,1,1.23-1.5,19.8,19.8,0,0,0-3.06,12.37Z"></path><path class="cls-10" d="M323.6,207.32a8.91,8.91,0,0,1,.09-6.47,31.07,31.07,0,0,1-.14,3.24A31.08,31.08,0,0,1,323.6,207.32Z"></path><path class="cls-10" d="M354.66,268.19a3,3,0,0,1-.6-.26,15.15,15.15,0,0,1-1.66-.86,30.45,30.45,0,0,1-5.55-4.06,38.64,38.64,0,0,1-6.53-7.83,50,50,0,0,1-5.3-11.31,91.24,91.24,0,0,1-3.72-22.33c-.17-2.89-.26-5.24-.3-6.86v-1.87a3.07,3.07,0,0,1,0-.65,3.08,3.08,0,0,1,.08.65l.14,1.86.47,6.84c.47,5.75,1.16,13.79,3.85,22.19a50.86,50.86,0,0,0,5.21,11.21,39.59,39.59,0,0,0,6.38,7.82,33.18,33.18,0,0,0,5.4,4.15C353.88,267.74,354.68,268.14,354.66,268.19Z"></path><g class="cls-13"><path class="cls-14" d="M331.69,219a40.63,40.63,0,0,0,15,26.26c3,2.34,6.47,4.51,7.73,8.09,1,2.89.3,6.12-1,8.91a4.21,4.21,0,0,1-2.4,2.63c-1.22.32-2.45-.4-3.45-1.16-6.57-4.94-10.8-12.49-13.16-20.37s-3-16.15-3.62-24.35"></path></g><path class="cls-10" d="M371,323.74c0,.14-16.89.26-37.73.26s-37.73-.12-37.73-.26,16.89-.26,37.73-.26S371,323.59,371,323.74Z"></path><path class="cls-10" d="M371,115.69c0,.14-16.89.26-37.73.26s-37.73-.12-37.73-.26,16.89-.26,37.73-.26S371,115.55,371,115.69Z"></path><path class="cls-10" d="M371,330c0,.14-16.89.26-37.73.26s-37.73-.12-37.73-.26,16.89-.26,37.73-.26S371,329.82,371,330Z"></path><path d="M328.14,348.1V359h-2.51v-8.85h-2.17v-2Z"></path><path d="M330,353.53c0-3.58,2-5.62,4.66-5.62s4.66,2,4.66,5.62-2,5.62-4.66,5.62S330,357.12,330,353.53Zm6.78,0c0-2.47-.87-3.49-2.13-3.49s-2.11,1-2.11,3.49.87,3.49,2.11,3.49,2.17-1,2.17-3.49Z"></path><path class="cls-10" d="M346.28,350.48a2.15,2.15,0,0,1-1.9,2.37H344a2.36,2.36,0,0,1-1.23-.3l.38-.75a1.43,1.43,0,0,0,.83.22,1.18,1.18,0,0,0,1.24-1.29,1.51,1.51,0,0,1-1.1.4,1.4,1.4,0,0,1-1.51-1.27s0-.07,0-.11a1.52,1.52,0,0,1,1.51-1.53h.16C345.53,348.24,346.28,349,346.28,350.48Zm-1.14-.77a.68.68,0,0,0-.77-.66.67.67,0,1,0,0,1.32.69.69,0,0,0,.77-.6v-.06Z"></path><path class="cls-10" d="M350.3,350.48a2.15,2.15,0,0,1-1.9,2.37H348a2.35,2.35,0,0,1-1.22-.3l.38-.75a1.42,1.42,0,0,0,.83.22,1.18,1.18,0,0,0,1.24-1.29,1.51,1.51,0,0,1-1.1.4,1.4,1.4,0,0,1-1.51-1.27s0-.07,0-.11a1.52,1.52,0,0,1,1.56-1.48h.12C349.55,348.24,350.3,349,350.3,350.48Zm-1.14-.77c0-.38-.28-.66-.77-.66a.67.67,0,1,0,0,1.32.69.69,0,0,0,.77-.6v-.06Z"></path><rect class="cls-10" x="342.5" y="354.38" width="7.76" height="0.98"></rect><path class="cls-7" d="M354.86,315.78c0,.14-9.35.26-20.89.26s-20.89-.12-20.89-.26,9.35-.26,20.89-.26S354.86,315.63,354.86,315.78Z"></path><circle class="cls-7" cx="389.16" cy="352.79" r="15.08"></circle><path class="cls-9" d="M385.35,361.24a4.61,4.61,0,0,1,.83-.75c.55-.45,1.37-1.1,2.38-1.88,2-1.57,4.84-3.71,8-6V353h0l-.07,0-.15-.11-.29-.22-.57-.43-1.12-.84-2.12-1.6L388.67,347l-2.38-1.88a4.61,4.61,0,0,1-.83-.75,4.6,4.6,0,0,1,1,.58l2.48,1.75,3.63,2.64,2.14,1.58,1.13.84.58.43.29.22.15.11.07,0h0V353c-3.13,2.34-6,4.43-8.06,5.92l-2.48,1.75A4.6,4.6,0,0,1,385.35,361.24Z"></path><circle class="cls-7" cx="275.01" cy="352.8" r="15.08"></circle><path class="cls-9" d="M278.8,344.33a4.61,4.61,0,0,1-.83.75c-.55.45-1.37,1.1-2.38,1.88-2,1.57-4.84,3.71-8,6v-.41h0l.07,0,.15.11.29.22.57.43,1.12.84,2.12,1.6,3.57,2.73,2.38,1.88a4.61,4.61,0,0,1,.83.75,4.6,4.6,0,0,1-1-.58l-2.48-1.75-3.47-2.59-2.14-1.58-1.13-.84-.58-.43-.29-.22-.15-.11-.07,0h0v-.42c3.13-2.34,6-4.43,8.06-5.92l2.48-1.75A4.6,4.6,0,0,1,278.8,344.33Z"></path><rect class="cls-2" x="264.44" y="378.49" width="30.13" height="30.13"></rect><rect class="cls-2" x="302.67" y="378.49" width="30.13" height="30.13"></rect><rect class="cls-2" x="340.89" y="378.49" width="30.13" height="30.13"></rect><rect class="cls-2" x="379.11" y="378.49" width="30.13" height="30.13"></rect><rect class="cls-7" x="304.5" y="105.23" width="56.22" height="3.2"></rect></g><g id="Bag"><path class="cls-10" d="M546.93,378.81a2.56,2.56,0,0,1,0-.59v-1.7l-.08-6.26v-6.73a19.13,19.13,0,0,1,.08-2.58,8.57,8.57,0,0,1,16.74-1.17,9,9,0,0,1,.32,2.59v6.73l-.08,6.26v1.7a.3.3,0,1,1-.11,0v-1.7l-.08-6.26v-4.32a18.87,18.87,0,0,0-.34-4.86,8.1,8.1,0,0,0-15.8,1.1,19.1,19.1,0,0,0-.1,2.51v6.73l-.08,6.26v1.7A2.58,2.58,0,0,1,546.93,378.81Z"></path><path class="cls-10" d="M557.25,378.81a2.57,2.57,0,0,1,0-.59v-1.7l-.08-6.26v-6.73a19.13,19.13,0,0,1,.08-2.58,8.57,8.57,0,0,1,16.74-1.17,9,9,0,0,1,.32,2.59v6.73l-.08,6.26v1.7a.3.3,0,1,1-.11,0v-1.7L574,369.1v-4.32a18.87,18.87,0,0,0-.34-4.86,8.1,8.1,0,0,0-15.8,1.1,19.08,19.08,0,0,0-.1,2.51v6.73l-.08,6.26v1.7A2.56,2.56,0,0,1,557.25,378.81Z"></path><polygon class="cls-7" points="534.42 374.42 527.47 435.81 575.19 435.81 581.22 374.42 534.42 374.42"></polygon><polygon class="cls-7" points="581.22 374.42 591.18 374.42 599.6 435.81 575.19 435.81 581.22 374.42"></polygon><g class="cls-15"><polygon points="581.22 374.42 591.18 374.42 599.6 435.81 575.19 435.81 581.22 374.42"></polygon></g><polygon class="cls-9" points="532.47 391.69 578.33 403.89 575.99 427.68 529.72 415.93 532.47 391.69"></polygon></g><g id="Character"><path class="cls-10" d="M460.1,280.19a31,31,0,0,0-.33,18.79c1.13,3.75,3,7.49,2.43,11.37-.47,3.16-2.52,5.92-2.92,9.09-.82,6.44,5.3,12.54,3.65,18.82a10,10,0,0,1-5.87,6.36,18.28,18.28,0,0,1-8.8,1.11c-4.39-.38-9.14-2-11.17-6-1.62-3.12-1.11-6.86-.55-10.33,2.48-15.32,5.34-30.75,11.56-45"></path><path class="cls-10" d="M462,327.54a3.11,3.11,0,0,1-.51.17,5.13,5.13,0,0,1-1.54.13,5.9,5.9,0,0,1-2.36-.68,5.31,5.31,0,0,1-2.26-2.31,5.85,5.85,0,0,1-.45-3.89,5.53,5.53,0,0,1,.93-2,8.55,8.55,0,0,1,1.67-1.64,44.47,44.47,0,0,0,4-3,7.9,7.9,0,0,0,2.22-4.63,13.32,13.32,0,0,0-.38-5.22,30.48,30.48,0,0,0-1.74-4.62,38.14,38.14,0,0,1-3-7.85,11.88,11.88,0,0,1,0-5.65,6.33,6.33,0,0,1,.82-1.91,12.43,12.43,0,0,0-.7,1.94,12.08,12.08,0,0,0,.07,5.58,39.1,39.1,0,0,0,3.07,7.78,30.29,30.29,0,0,1,1.77,4.66,13.55,13.55,0,0,1,.39,5.34,8.19,8.19,0,0,1-2.31,4.8,43.22,43.22,0,0,1-4,3,6.21,6.21,0,0,0-2.53,3.49,5.64,5.64,0,0,0,.39,3.74,5.16,5.16,0,0,0,2.15,2.26,5.89,5.89,0,0,0,2.28.71A6.7,6.7,0,0,0,462,327.54Z"></path><path class="cls-16" d="M401.58,426.18l-2.5,9.57-25.75-.24s1.89-4.51,16-4.3l1-5Z"></path><path class="cls-8" d="M495.33,282.54c-.25.49-6.78,34.09-6.78,34.09l15.41.72,6-28.89Z"></path><polygon class="cls-17" points="488.55 316.63 486.78 315.89 493.45 282.77 495.54 282.63 488.55 316.63"></polygon><path class="cls-10" d="M501.52,289.89a.8.8,0,1,0,.9-.69h0A.8.8,0,0,0,501.52,289.89Z"></path><path class="cls-16" d="M504.71,313.47l.23-4.4-6.58-2.71,2.57-6.1a5.31,5.31,0,0,1,7-2.72l.39.19,2.64,1.43a7.55,7.55,0,0,1,3.75,4.87,96.85,96.85,0,0,1,1.53,10.74"></path><path class="cls-7" d="M522.33,425.47s27.08,7.5,28.17,7.88c1.63.57,1.36,6.55-1.18,6.46-1.2,0-20.8.73-23.28.57s-10-3.1-10-3.1Z"></path><path class="cls-10" d="M533.61,435.8a11.88,11.88,0,0,1,3.11-5.4A6,6,0,0,0,533.61,435.8Z"></path><path class="cls-10" d="M530.78,434.52c.13,0,.41-1.26,1.13-2.67s1.57-2.4,1.47-2.5A6.79,6.79,0,0,0,530.78,434.52Z"></path><path class="cls-10" d="M528.14,433.81a9.51,9.51,0,0,1,2.11-5.39A5.09,5.09,0,0,0,528.14,433.81Z"></path><path class="cls-10" d="M528.62,430.32a4.8,4.8,0,0,0,.29-2,9.49,9.49,0,0,0-.27-2.21,9.36,9.36,0,0,0-.4-1.26,1.51,1.51,0,0,0-.43-.66.72.72,0,0,0-.93,0,1.2,1.2,0,0,0-.36.77,5.25,5.25,0,0,0,0,.72,6,6,0,0,0,.17,1.33,8,8,0,0,0,.83,2.07,5.46,5.46,0,0,0,1.22,1.63c.06,0-.39-.67-.93-1.78a8.89,8.89,0,0,1-.71-2,6,6,0,0,1-.13-1.24c0-.42,0-.94.25-1.14a.26.26,0,0,1,.36,0,1.14,1.14,0,0,1,.3.47,10,10,0,0,1,.41,1.19,10.88,10.88,0,0,1,.36,2.11C528.67,429.54,528.54,430.3,528.62,430.32Z"></path><path class="cls-10" d="M528.58,430a3.79,3.79,0,0,0-1.75-.28,7.86,7.86,0,0,0-1.92.24,4.23,4.23,0,0,0-1.11.41,1.14,1.14,0,0,0-.61,1.24,1.35,1.35,0,0,0,1,1,2.48,2.48,0,0,0,1.21,0,4.67,4.67,0,0,0,1.76-.87,4.76,4.76,0,0,0,1.26-1.24,12,12,0,0,0-1.44,1,4.81,4.81,0,0,1-1.66.72,2.14,2.14,0,0,1-1,0,.92.92,0,0,1-.66-.64.7.7,0,0,1,.4-.76,4.12,4.12,0,0,1,1-.38,9.09,9.09,0,0,1,1.82-.32C527.91,430,528.57,430.11,528.58,430Z"></path><path class="cls-10" d="M537.77,436.09a7.31,7.31,0,0,1,1.86-4.56A3.89,3.89,0,0,0,537.77,436.09Z"></path><path class="cls-10" d="M518.87,437.34a5.63,5.63,0,0,0,1,.49,23.25,23.25,0,0,0,3,.93,43,43,0,0,0,10.34,1c4.06,0,7.72-.23,10.37-.34l3.14-.17a5.64,5.64,0,0,0,1.15-.12,5.64,5.64,0,0,0-1.15,0h-3.14l-10.36.2a48.42,48.42,0,0,1-10.27-.84C520.42,437.92,518.9,437.24,518.87,437.34Z"></path><path class="cls-10" d="M518.07,438c0,.06.78-.37,2-.92a9.43,9.43,0,0,1,5.12-.85,8.12,8.12,0,0,1,4.43,2.64,15.86,15.86,0,0,0,1.56,1.59,8.4,8.4,0,0,0-1.33-1.81,10.74,10.74,0,0,0-1.8-1.68,6.43,6.43,0,0,0-2.8-1.19,9,9,0,0,0-5.33,1A7.18,7.18,0,0,0,518.07,438Z"></path><path class="cls-7" d="M493.58,418S468,434.77,467,435.47c-1.38,1,.2,6,2.59,5.15,1.13-.41,22.63-6.39,25-7.29s8.54-6,8.54-6Z"></path><path class="cls-10" d="M486,431.24a6,6,0,0,0-4.6-4.2A11.87,11.87,0,0,1,486,431.24Z"></path><path class="cls-10" d="M488.27,429.19a6.79,6.79,0,0,0-4-4.13c-.06.12,1.06.79,2.16,1.93S488.15,429.24,488.27,429.19Z"></path><path class="cls-10" d="M490.58,427.71a5.08,5.08,0,0,0-3.65-4.5A9.51,9.51,0,0,1,490.58,427.71Z"></path><path class="cls-10" d="M489.06,424.52c.07,0-.28-.73-.58-1.92a10.88,10.88,0,0,1-.3-2.12,10,10,0,0,1,0-1.26,1.14,1.14,0,0,1,.14-.54.26.26,0,0,1,.35-.08c.29.12.44.61.58,1a6,6,0,0,1,.25,1.22,8.9,8.9,0,0,1-.07,2.13c-.18,1.22-.42,2-.35,2a5.46,5.46,0,0,0,.66-1.92,8.05,8.05,0,0,0,.17-2.23,6,6,0,0,0-.24-1.31,5.25,5.25,0,0,0-.25-.67,1.19,1.19,0,0,0-.58-.62.72.72,0,0,0-.9.24,1.51,1.51,0,0,0-.21.76,9.35,9.35,0,0,0,0,1.32,9.5,9.5,0,0,0,.41,2.19A4.8,4.8,0,0,0,489.06,424.52Z"></path><path class="cls-10" d="M489,424.24c0,.07.63-.24,1.67-.49a9.09,9.09,0,0,1,1.84-.25,4.13,4.13,0,0,1,1,.07.7.7,0,0,1,.61.6.92.92,0,0,1-.43.81,2.14,2.14,0,0,1-1,.32,4.81,4.81,0,0,1-1.8-.18,11.92,11.92,0,0,0-1.67-.49,4.76,4.76,0,0,0,1.58.8,4.67,4.67,0,0,0,1.94.29,2.48,2.48,0,0,0,1.16-.37,1.35,1.35,0,0,0,.64-1.22,1.14,1.14,0,0,0-1-1,4.23,4.23,0,0,0-1.18,0,7.85,7.85,0,0,0-1.9.36A3.79,3.79,0,0,0,489,424.24Z"></path><path class="cls-10" d="M472.89,439.68a1.69,1.69,0,0,0,.63-1,3.78,3.78,0,0,0-.48-2.78,10.2,10.2,0,0,0-.86-1.28,4.71,4.71,0,0,0-.87-.93,1.52,1.52,0,0,0-.82-.34c-.21,0-.32,0-.32.07a2.43,2.43,0,0,1,.93.52,5.8,5.8,0,0,1,.74.93,14.59,14.59,0,0,1,.8,1.25,4,4,0,0,1,.56,2.5C473.11,439.24,472.83,439.63,472.89,439.68Z"></path><path class="cls-10" d="M482.09,432.8a3.89,3.89,0,0,0-3.16-3.78A7.31,7.31,0,0,1,482.09,432.8Z"></path><path class="cls-10" d="M500.48,428.24a9,9,0,0,0-1.13.77,32.13,32.13,0,0,1-3.16,1.94,41.62,41.62,0,0,1-5,2.23c-1.94.72-4.12,1.41-6.42,2.07-4.61,1.33-8.78,2.54-11.8,3.45l-3.56,1.09a7.89,7.89,0,0,0-1.29.46,7.92,7.92,0,0,0,1.34-.29l3.6-1c3-.83,7.22-2,11.83-3.32,2.31-.67,4.49-1.37,6.44-2.12a37.77,37.77,0,0,0,5-2.34,25.22,25.22,0,0,0,3.11-2.08A7,7,0,0,0,500.48,428.24Z"></path><path class="cls-10" d="M501.43,428.6a7.18,7.18,0,0,0-2.17-.58,9,9,0,0,0-5.39.66,6.43,6.43,0,0,0-2.31,2,10.74,10.74,0,0,0-1.2,2.15,8.39,8.39,0,0,0-.71,2.13,15.87,15.87,0,0,0,1-2,8.12,8.12,0,0,1,3.42-3.86,9.43,9.43,0,0,1,5.14-.74C500.57,428.48,501.41,428.67,501.43,428.6Z"></path><path class="cls-7" d="M432.13,318l21,2,8.54,2.42a23.15,23.15,0,0,1,9.72,5.57l27.51,26.41,5-41,13.74,1.2-2.29,52.8a15.73,15.73,0,0,1-15,11,16.24,16.24,0,0,1-11.07-4.55l-19.59-18.41-.59,26.31,13.6,11-52.41,29.2s-2.84-11.15-1.55-36c.24-4.56-8.12-18.4-8.76-22.47-2.45-15.65-2.07-38.54-2.07-38.54Z"></path><path class="cls-7" d="M419.21,324.41s-10.63,3.94-13.2,12.27c-2.28,7.38-9.89,48.91-9.89,48.91l-7.55,44,15.8.6,18.2-74.9Z"></path><path class="cls-10" d="M418.5,372.95a3.84,3.84,0,0,0,.32-.89c.18-.58.42-1.43.7-2.48.57-2.1,1.3-5,2-8.27s1.32-6.2,1.71-8.34c.19-1.07.34-1.94.43-2.54a3.82,3.82,0,0,0,.09-1,3.84,3.84,0,0,0-.27.91l-.57,2.51-1.83,8.3-1.9,8.29-.56,2.52A3.84,3.84,0,0,0,418.5,372.95Z"></path><path class="cls-10" d="M515.25,318.52a9.83,9.83,0,0,0,.35-4.18A9.84,9.84,0,0,0,515.25,318.52Z"></path><path class="cls-10" d="M511.23,318.65a11,11,0,0,0,.23-4.44A11,11,0,0,0,511.23,318.65Z"></path><path class="cls-10" d="M507.23,318.39a13.61,13.61,0,0,0,.28-4.94A13.62,13.62,0,0,0,507.23,318.39Z"></path><path class="cls-10" d="M499.5,360.7a29.19,29.19,0,0,0-.74-7.22A29.2,29.2,0,0,0,499.5,360.7Z"></path><path class="cls-10" d="M401.78,425.56A11.53,11.53,0,0,0,401,430,11.53,11.53,0,0,0,401.78,425.56Z"></path><path class="cls-10" d="M396.58,425.56a9.5,9.5,0,0,0-.68,4.07A9.5,9.5,0,0,0,396.58,425.56Z"></path><path class="cls-10" d="M391.65,425.06a19.62,19.62,0,0,0-.77,4.56A8.6,8.6,0,0,0,391.65,425.06Z"></path><path class="cls-10" d="M410.68,329.53c0,.08,1.1,0,2.82.38a13.12,13.12,0,0,1,9.79,8.55c.59,1.65.67,2.75.75,2.74a2.29,2.29,0,0,0,0-.77,10.9,10.9,0,0,0-.43-2.07,12.63,12.63,0,0,0-10-8.76,10.88,10.88,0,0,0-2.11-.15A2.29,2.29,0,0,0,410.68,329.53Z"></path><path class="cls-10" d="M467.45,366.61c-.09,0,.41-1.3.91-3.41a29.8,29.8,0,0,0-.89-16.69c-.72-2-1.35-3.25-1.26-3.29a3.37,3.37,0,0,1,.51.81,19.24,19.24,0,0,1,1.1,2.36,26.94,26.94,0,0,1,.9,16.91,19.22,19.22,0,0,1-.84,2.46A3.37,3.37,0,0,1,467.45,366.61Z"></path><path class="cls-10" d="M468.8,381.12a3.08,3.08,0,0,1-.91.06,22.52,22.52,0,0,1-2.48-.11,42.07,42.07,0,0,1-15.65-4.48c-.93-.48-1.67-.9-2.16-1.22a3.08,3.08,0,0,1-.74-.53c0-.07,1.17.55,3.06,1.42a51.53,51.53,0,0,0,15.53,4.44C467.51,381,468.8,381,468.8,381.12Z"></path><g class="cls-18"><path d="M445.59,373.81c1.64,1.47,4.2,1.69,6.4,1.65s4.4-.48,6.61-.44a8.18,8.18,0,0,1,6,2.27,3,3,0,0,1,.85,1.81,1.6,1.6,0,0,1-1,1.61,2.52,2.52,0,0,1-1.26,0c-6.18-1.28-12.84-2.73-17.63-6.85"></path></g><g class="cls-18"><path d="M425.34,375.77c1.63-.47,1.9-2.38,2.06-4.07a36.91,36.91,0,0,0-3.93-20.29c-.77,4.6-2,9.38-3,14.06Z"></path></g><path class="cls-9" d="M422.49,356.62a4.32,4.32,0,0,0-1.34-.6,4.55,4.55,0,0,0-3.69,1.06c-1.34,1-2.08,3-2.49,5.26s-.66,4.88-2.35,7.11a5.5,5.5,0,0,1-3.39,2,27.29,27.29,0,0,1-3.61.26,7.78,7.78,0,0,0-5.35,2.2,8.19,8.19,0,0,0-2.11,3.38c-.29.91-.32,1.45-.37,1.45a1.12,1.12,0,0,1,0-.39,5.5,5.5,0,0,1,.21-1.11,8.13,8.13,0,0,1,4.4-5.25,8.52,8.52,0,0,1,3.23-.75,28.47,28.47,0,0,0,3.54-.29,5,5,0,0,0,3.08-1.86,9.49,9.49,0,0,0,1.56-3.38c.32-1.18.49-2.37.73-3.5.44-2.24,1.24-4.35,2.73-5.45a4.67,4.67,0,0,1,4-1,2.74,2.74,0,0,1,1,.51C422.41,356.51,422.51,356.61,422.49,356.62Z"></path><path class="cls-9" d="M481.89,337.24a6.68,6.68,0,0,1-1.32,2,9.92,9.92,0,0,1-5.76,3.09,9.37,9.37,0,0,1-4.57-.36,15,15,0,0,1-4.46-2.78,25.4,25.4,0,0,0-4.59-3.33,7.42,7.42,0,0,0-2.82-.77,8.64,8.64,0,0,0-3,.38,19.92,19.92,0,0,0-5.39,2.8,33.64,33.64,0,0,1-5,3,12.8,12.8,0,0,1-5.15,1.09,14.22,14.22,0,0,1-4.52-.75,13.59,13.59,0,0,1-5.53-3.54,10.43,10.43,0,0,1-1.1-1.42,2.79,2.79,0,0,1-.32-.54s.49.71,1.56,1.82a13.91,13.91,0,0,0,5.5,3.33,13,13,0,0,0,9.35-.43,34,34,0,0,0,4.87-3,20.18,20.18,0,0,1,5.53-2.87,9.12,9.12,0,0,1,3.18-.39,7.9,7.9,0,0,1,3,.83,25.33,25.33,0,0,1,4.68,3.42,14.75,14.75,0,0,0,4.3,2.74,9.07,9.07,0,0,0,4.37.41,9.94,9.94,0,0,0,5.67-2.86A16.52,16.52,0,0,0,481.89,337.24Z"></path><path class="cls-9" d="M507.78,376.91a14.94,14.94,0,0,1-.41-1.85,23.51,23.51,0,0,0-1.44-4.9,11.13,11.13,0,0,0-1.88-2.93,7.45,7.45,0,0,0-3.27-2.16,13.81,13.81,0,0,0-4.39-.44,18,18,0,0,1-4.89-.35,10.64,10.64,0,0,1-4.27-2.45,45.25,45.25,0,0,1-3.18-3.24c-1.92-2.11-4-3.8-6-4.3a6.12,6.12,0,0,0-4.84.73,5.83,5.83,0,0,0-1.29,1.33,1.75,1.75,0,0,1,.21-.45,4.17,4.17,0,0,1,1-1,6.21,6.21,0,0,1,5-.92c2.22.48,4.36,2.23,6.31,4.33,1,1,2,2.17,3.16,3.19a10.23,10.23,0,0,0,4.07,2.33c3.14.79,6.43-.14,9.3.83a7.83,7.83,0,0,1,3.44,2.33,11.28,11.28,0,0,1,1.9,3.07,21.15,21.15,0,0,1,1.3,5c.09.6.15,1.07.18,1.39A1.76,1.76,0,0,1,507.78,376.91Z"></path><path class="cls-9" d="M468.77,361.74a1.92,1.92,0,0,1-.51.08,6.06,6.06,0,0,1-1.49,0,18.34,18.34,0,0,1-5.12-1.84,21.07,21.07,0,0,0-3.45-1.34,9.15,9.15,0,0,0-4.16-.14,17.53,17.53,0,0,0-8.28,4.82c-2.51,2.4-4.69,5-7.12,6.83a15.85,15.85,0,0,1-7.35,3.3,15.25,15.25,0,0,1-5.44-.07,10.89,10.89,0,0,1-1.43-.37,1.93,1.93,0,0,1-.48-.19s.69.17,2,.36a16.13,16.13,0,0,0,5.35-.09,15.77,15.77,0,0,0,7.12-3.32c2.37-1.85,4.52-4.4,7.06-6.83A17.6,17.6,0,0,1,454,358a9.51,9.51,0,0,1,4.36.19,20.66,20.66,0,0,1,3.5,1.42,19.82,19.82,0,0,0,5,2A17.24,17.24,0,0,0,468.77,361.74Z"></path><path class="cls-9" d="M459.58,379.36c0,.15-1,.08-2,.83s-1.16,1.73-1.31,1.71-.12-.28,0-.71a2.88,2.88,0,0,1,2.59-2C459.34,379.18,459.59,379.3,459.58,379.36Z"></path><path class="cls-9" d="M468.16,375.24a8.85,8.85,0,0,1-3.58,5.37,31,31,0,0,1,1.86-2.64A31,31,0,0,1,468.16,375.24Z"></path><path class="cls-9" d="M433.21,389.41c0,.14-1.13-.16-2.47-.16a19.92,19.92,0,0,1-2.48.12,5,5,0,0,1,5,0Z"></path><path class="cls-9" d="M404.51,340.87a3.73,3.73,0,0,0,.66.24,3,3,0,0,0,1.81-.16,5,5,0,0,0,2.11-1.75,24.43,24.43,0,0,1,2.22-2.78,11.91,11.91,0,0,1,5.67-3.11,10.26,10.26,0,0,1,2-.25,1.86,1.86,0,0,1,.72.06c0,.09-1,.1-2.58.54a12.7,12.7,0,0,0-5.39,3.12,29.08,29.08,0,0,0-2.22,2.71,5.19,5.19,0,0,1-2.36,1.79,3,3,0,0,1-2,0C404.66,341.11,404.49,340.89,404.51,340.87Z"></path><path class="cls-9" d="M458,321.16a3.76,3.76,0,0,1-1.13,1.31,9.55,9.55,0,0,1-7.87,2.07,3.76,3.76,0,0,1-1.63-.59,12.17,12.17,0,0,1,1.69.23,10.92,10.92,0,0,0,7.63-2A12.19,12.19,0,0,1,458,321.16Z"></path><path class="cls-9" d="M413.14,395.7a4.85,4.85,0,0,0-1.15.2,7.33,7.33,0,0,0-2.8,1.36,11.52,11.52,0,0,0-3,3.54c-.9,1.53-1.64,3.34-2.59,5.2a14.08,14.08,0,0,1-3.56,4.68,6.62,6.62,0,0,1-4.54,1.56,5,5,0,0,1-3-1.12,3.07,3.07,0,0,1-.6-.65q-.16-.26-.15-.27a7.38,7.38,0,0,0,.87.77,5.06,5.06,0,0,0,2.92.91,6.35,6.35,0,0,0,4.23-1.55,14.09,14.09,0,0,0,3.4-4.54c.93-1.82,1.7-3.65,2.64-5.2A11.41,11.41,0,0,1,409,397a6.93,6.93,0,0,1,3-1.26,4.1,4.1,0,0,1,.88,0A.37.37,0,0,1,413.14,395.7Z"></path><g class="cls-19"><path d="M498.46,353.86a9,9,0,0,0-1.8,7.84c.11.44.31.94.75,1.07a1,1,0,0,0,1-.38,2.53,2.53,0,0,0,.42-1,16,16,0,0,0-.13-7.72"></path></g><path class="cls-9" d="M517.19,330.75a14.83,14.83,0,0,0-2.52,3,23.8,23.8,0,0,0-1.81,3.89c-.58,1.52-1.13,3.23-1.93,5a12.68,12.68,0,0,1-3.11,4.38,8,8,0,0,1-4,1.81,5.4,5.4,0,0,1-2.94-.37,3.64,3.64,0,0,1-.7-.41c-.15-.11-.22-.18-.21-.19s.34.18,1,.41a5.61,5.61,0,0,0,2.81.2,7.83,7.83,0,0,0,3.75-1.81,12.67,12.67,0,0,0,3-4.24c.78-1.69,1.35-3.39,2-4.92a21.66,21.66,0,0,1,2-3.91,10.3,10.3,0,0,1,1.93-2.23A3.11,3.11,0,0,1,517.19,330.75Z"></path><path class="cls-9" d="M518,319.65a6.35,6.35,0,0,1-1.75,1.53,14.47,14.47,0,0,1-10.84,2.14,6.35,6.35,0,0,1-2.21-.75c0-.08.87.19,2.27.39A16.28,16.28,0,0,0,516,320.87C517.3,320.15,518,319.58,518,319.65Z"></path><path class="cls-17" d="M525.4,425.16s-62.84-41.23-65.4-42.08-8.79-4.93-15-3.22-11.79,7.29-14.58,15.44-3,26.38-3,26.38S432.35,436,442,439a24.56,24.56,0,0,0,2.51.63,29.68,29.68,0,0,0,30.35-13.12l1.4-2.13s41.11,15.1,41.75,14.89Z"></path><path class="cls-17" d="M546.84,377.07a12.27,12.27,0,0,1,7.72,11.37c.06,16.51-33.36,34.71-33.36,34.71l-44.48-29.47v-3.1S534,370,546.84,377.07Z"></path><path class="cls-20" d="M447.65,413.81l.34.15,1,.41,4,1.53,14.81,5.58c6.29,2.35,13.82,5.14,22.28,8.21s17.82,6.45,27.83,9.83l.18.06.09-.17,4.91-9.38,2.5-4.78.1-.18-.17-.11-47.93-30.42-14.4-9.08L459.28,383l-1-.62-.36-.2.33.24,1,.66,3.87,2.51,14.32,9.2,47.86,30.55-.08-.29-2.5,4.78-4.93,9.39.27-.11c-10-3.38-19.37-6.74-27.83-9.78l-22.31-8.11-14.85-5.45-4-1.46-1-.37Z"></path><path class="cls-20" d="M499.24,408.56a8.26,8.26,0,0,0,1.16-.79c.73-.53,1.77-1.31,3-2.3,2.55-2,6-4.76,9.74-8s7-6.21,9.34-8.43c1.17-1.11,2.1-2,2.73-2.66a8.26,8.26,0,0,0,1-1,8.27,8.27,0,0,0-1.07.9l-2.83,2.55c-2.38,2.16-5.7,5.12-9.42,8.32s-7.15,6-9.64,8l-3,2.41A8.26,8.26,0,0,0,499.24,408.56Z"></path><path class="cls-20" d="M534.28,383.24a11,11,0,0,0-8.1,2.39c.07.12,1.7-.92,3.94-1.57S534.28,383.38,534.28,383.24Z"></path><path class="cls-20" d="M530.45,380.64a6.76,6.76,0,0,0-4,5,31.5,31.5,0,0,1,1.74-2.71C529.31,381.56,530.52,380.76,530.45,380.64Z"></path><path class="cls-10" d="M549.28,432.92s-.53-.16-1.15.35a4.16,4.16,0,0,0-1.29,2.58,5.07,5.07,0,0,0,.41,2.85,2.43,2.43,0,0,0,.7,1s-.18-.42-.4-1.08a5.78,5.78,0,0,1-.25-2.66,4.47,4.47,0,0,1,1-2.41C548.82,433,549.29,433,549.28,432.92Z"></path><path class="cls-17" d="M420.5,285.77a6.32,6.32,0,0,0-8.94.11l-.26.29a10.82,10.82,0,0,0-2.12,5.58,26.92,26.92,0,0,1-1.16,5.92,6.09,6.09,0,0,1-4.2,4c-1.5.28-3.28-.19-4.42.82a2.86,2.86,0,0,0-.26,3.58,6.64,6.64,0,0,0,3.08,2.31c.47.21,1,.51,1,1,0,.67-.85.92-1.47,1.18-1.86.79-2.4,3.44-1.37,5.18a6,6,0,0,0,5.19,2.59,17.37,17.37,0,0,0,5.88-1.35,2.28,2.28,0,0,0-.06,2.9,3.12,3.12,0,0,0,2.83,1.06,5,5,0,0,0,2.77-1.43,10,10,0,0,0,2.71-5.45,33.84,33.84,0,0,0,.36-6.17,163.8,163.8,0,0,1,1.57-22"></path><path class="cls-16" d="M441.74,271.57a15.21,15.21,0,0,1,14.5,15.17c0,6.29-.09,13.13-.49,17.19-.93,9.44-8,11-8,11s.23,5.86.54,11.43c.3,5.3-4,10-9.71,10.42h0c-5.61.45-10.42-3.4-10.8-8.64l-1.9-40.73a15.2,15.2,0,0,1,14.47-15.9q.71,0,1.42,0Z"></path><path class="cls-10" d="M454.09,290.87a1.2,1.2,0,0,1-1.08,1.28,1.15,1.15,0,0,1-1.3-1v0a1.2,1.2,0,0,1,1.08-1.28,1.15,1.15,0,0,1,1.3,1Z"></path><path class="cls-10" d="M454.07,289c-.14.17-1.09-.45-2.38-.37s-2.2.78-2.35.63.06-.36.46-.68a3.3,3.3,0,0,1,1.87-.7,3.17,3.17,0,0,1,1.9.49C454,288.66,454.13,288.94,454.07,289Z"></path><path class="cls-10" d="M440.65,291.57a1.2,1.2,0,0,1-1.08,1.28,1.15,1.15,0,0,1-1.3-1v0a1.2,1.2,0,0,1,1.08-1.28,1.15,1.15,0,0,1,1.3,1Z"></path><path class="cls-10" d="M440.63,290.24c-.14.17-1.09-.45-2.38-.37s-2.2.78-2.35.63.06-.36.46-.68a3.3,3.3,0,0,1,1.87-.7,3.17,3.17,0,0,1,1.9.49C440.54,289.93,440.7,290.24,440.63,290.24Z"></path><path class="cls-10" d="M445.88,299.57a8.56,8.56,0,0,1,2.07-.5c.33,0,.64-.14.68-.37a1.68,1.68,0,0,0-.28-1l-1.12-2.46a43.21,43.21,0,0,1-2.58-6.43,43.29,43.29,0,0,1,3.09,6.21l1.08,2.47a1.91,1.91,0,0,1,.25,1.28.83.83,0,0,1-.51.51,2.26,2.26,0,0,1-.56.11A8.42,8.42,0,0,1,445.88,299.57Z"></path><path class="cls-21" d="M447.77,315A25.59,25.59,0,0,1,435,312.24s3.49,6.72,12.89,5.5Z"></path><path class="cls-10" d="M436.37,286.69c.16.23,1.09-.16,2.27-.42s2.18-.32,2.23-.59-1.06-.66-2.44-.35S436.21,286.48,436.37,286.69Z"></path><path class="cls-10" d="M449.15,284.36c.06.27,1.12.23,2.39.25s2.33.08,2.4-.19-1-.76-2.39-.78S449.08,284.11,449.15,284.36Z"></path><path class="cls-17" d="M428.25,323.3c-.09-1.94,2.08-10.36,2.94-15.53s-2.52-6-3-9.06a10.49,10.49,0,0,1,1-6c4.94,1.77,6.89-1.75,9.59-3.83,2.87-2.21,3.5-4.93,4.67-8.36s2.54-5.57,6.14-5.9a10.68,10.68,0,0,1,4.8,5.51c1.1,3.21,2,15.73,2,15.73.5-6,5.37-8.53,4-17.36-.57-3.82-3.73-9-8.61-9.79-1.41-.22-4.09-.39-4.09-.39-2.92-2.62-4.34-2.55-7.13-3.78-6-2.67-13.25,2.1-17.25,7.33-3.07,4-4.57,9.47-5.4,14.59a42.17,42.17,0,0,0-.23,10.74c.2,2.13-.06,4.84-2.16,6.47-3,2.33-3.78,6.77-1.71,12.7s-5.56,16-5.56,16a46.79,46.79,0,0,1,6.8-4.61C418.12,326.24,428.25,323.3,428.25,323.3Z"></path><path class="cls-21" d="M444.33,302.65a1.93,1.93,0,0,0-1.78-.59,1.76,1.76,0,0,0-1.17.74,1.12,1.12,0,0,0,0,1.28,1.3,1.3,0,0,0,1.43.25,4.06,4.06,0,0,0,1.31-.92,1.19,1.19,0,0,0,.28-.34.36.36,0,0,0,0-.4"></path><path class="cls-10" d="M441.49,301c.17,0,.26,1.14,1.32,1.89s2.28.53,2.3.69-.26.25-.78.3a2.9,2.9,0,0,1-1.92-.51,2.53,2.53,0,0,1-1-1.59C441.3,301.31,441.41,301,441.49,301Z"></path><path class="cls-10" d="M400.7,298.37a11.35,11.35,0,0,0,.1,1.3,4.55,4.55,0,0,0,.49,1.43,3.2,3.2,0,0,0,1.4,1.36,2.75,2.75,0,0,0,2.3.11,2.92,2.92,0,0,0,1.54-2.12,11.44,11.44,0,0,0,.17-3.09c0-1.09-.1-2.22-.11-3.38a13.51,13.51,0,0,1,1.26-6.4,6.39,6.39,0,0,1,4-3.44,5.09,5.09,0,0,1,3.56.28,3.07,3.07,0,0,1,1,.8,6.85,6.85,0,0,0-1.1-.69,5.08,5.08,0,0,0-3.45-.17,6.21,6.21,0,0,0-3.79,3.36,13.42,13.42,0,0,0-1.21,6.27c0,1.15.07,2.28.1,3.37a11.53,11.53,0,0,1-.19,3.17,3.18,3.18,0,0,1-1.71,2.29,3,3,0,0,1-2.5-.15,3.36,3.36,0,0,1-1.46-1.47,4.49,4.49,0,0,1-.46-1.49A3.9,3.9,0,0,1,400.7,298.37Z"></path><path class="cls-20" d="M414.49,318.65a2.42,2.42,0,0,1-.49-.49,3.89,3.89,0,0,1-.73-1.85,5.42,5.42,0,0,1,.55-3.09,12,12,0,0,1,2.59-3.27,22.11,22.11,0,0,0,3.4-3.67A8.66,8.66,0,0,0,421,300.8a57,57,0,0,1-.49-6.39,8.55,8.55,0,0,1,.78-3.34,6,6,0,0,1,2.44-2.54c2.1-1.19,4.44-1.52,6.37-2.58a10.37,10.37,0,0,0,4.12-4.65c.92-1.81,1.58-3.64,2.43-5.26a11.29,11.29,0,0,1,3.15-4,6.08,6.08,0,0,1,3.92-1.34,4.91,4.91,0,0,1,2.91,1.17,3.67,3.67,0,0,1,1.13,1.64,2.35,2.35,0,0,1,.12.51.74.74,0,0,1,0,.18,1.73,1.73,0,0,0-.2-.66A3.72,3.72,0,0,0,446.5,272a4.82,4.82,0,0,0-2.84-1.09,5.92,5.92,0,0,0-3.78,1.35,11.12,11.12,0,0,0-3.06,3.9c-.83,1.6-1.48,3.43-2.41,5.27a10.63,10.63,0,0,1-4.23,4.79c-2,1.1-4.34,1.43-6.35,2.58a5.68,5.68,0,0,0-2.32,2.41,8.26,8.26,0,0,0-.75,3.21,58.27,58.27,0,0,0,.47,6.36A8.9,8.9,0,0,1,420,306.4a22,22,0,0,1-3.46,3.69,12,12,0,0,0-2.59,3.19,5.35,5.35,0,0,0-.58,3A3.83,3.83,0,0,0,414.49,318.65Z"></path><path class="cls-9" d="M417,290.24a4.82,4.82,0,0,1,1.19-5.68,21.2,21.2,0,0,0-1,2.75A21.21,21.21,0,0,0,417,290.24Z"></path><path class="cls-17" d="M420.25,319.13a22.3,22.3,0,0,0,2.91,14.46,11.51,11.51,0,0,0,3.57,4,5.93,5.93,0,0,0,5.13.73,4,4,0,0,0,2.66-4.19c-.4-2.5-3.49-4.07-3.5-6.61,1.12.67,2.64,1.33,3.62.46a2.21,2.21,0,0,0,.37-2.46,9.52,9.52,0,0,0-1.51-2.17A13.59,13.59,0,0,1,430.77,313c.16-1,.43-4.13.44-5.16s-.27,0-1-.67a3.14,3.14,0,0,0-2.85-.52,6,6,0,0,0-2.53,1.59,11.66,11.66,0,0,0-3.48,8.88"></path></g><g id="Plant"><path class="cls-2" d="M164.55,260.6a.75.75,0,0,0-.09-.21l-.32-.59a24.74,24.74,0,0,0-1.39-2.17,23.37,23.37,0,0,0-6.87-6.49,16.86,16.86,0,0,0-6.17-2.27,15.26,15.26,0,0,0-7.49.79,12.15,12.15,0,0,0-6.41,5.25c-1.47,2.57-1.95,5.59-2.81,8.47a15.36,15.36,0,0,1-1.79,4,12.24,12.24,0,0,1-3,3c-1.15.85-2.34,1.61-3.43,2.49a14.76,14.76,0,0,0-2.79,3,18.57,18.57,0,0,0-2.86,7,24.77,24.77,0,0,0-.38,6.55,49.88,49.88,0,0,0,1.68,9.33c.28,1.08.52,1.92.69,2.48a5.8,5.8,0,0,0,.28.85,5.79,5.79,0,0,0-.18-.88l-.59-2.5a53.83,53.83,0,0,1-1.51-9.3,24.72,24.72,0,0,1,.44-6.45,18.25,18.25,0,0,1,2.83-6.79,14.34,14.34,0,0,1,2.71-2.91c1.06-.86,2.25-1.61,3.42-2.47a12.7,12.7,0,0,0,3.17-3.12,15.79,15.79,0,0,0,1.86-4.18c.87-2.93,1.34-5.91,2.75-8.37a11.7,11.7,0,0,1,6.13-5.05,14.89,14.89,0,0,1,7.26-.81,16.63,16.63,0,0,1,6,2.15,24,24,0,0,1,6.9,6.3c.67.89,1.15,1.61,1.46,2.11A5.8,5.8,0,0,0,164.55,260.6Z"></path><path class="cls-2" d="M126.82,271.18c.79-.74,1.18-.22,2.25,0a6.64,6.64,0,0,1,2.88,1.44,12.15,12.15,0,0,1,3.94,12.75,9.48,9.48,0,0,1-8.71-14.24"></path><path class="cls-2" d="M160.4,255.69c.4-1,.69-.74,1.74-1a6.64,6.64,0,0,1,3.22.06,12.15,12.15,0,0,1,9,9.81,9.48,9.48,0,0,1-14-9.11"></path><path class="cls-2" d="M119.64,291.24a10.94,10.94,0,0,1,17.2.84,13.54,13.54,0,0,1-8.92,3.52,13.83,13.83,0,0,1-9-3.64"></path><path class="cls-2" d="M122.32,276.24A11.09,11.09,0,0,1,111.12,263a10,10,0,0,1,11.57,13.12"></path><path class="cls-2" d="M133.8,258.62a11.09,11.09,0,0,1-15-8.76,10,10,0,0,1,15.27,8.53"></path><path class="cls-2" d="M137.65,252.86a11.09,11.09,0,0,1,15,8.76,10,10,0,0,1-15.27-8.53"></path><path class="cls-2" d="M142.24,249.76a11.09,11.09,0,0,1-5.9-16.3,10,10,0,0,1,6.28,16.33"></path><path class="cls-2" d="M154,250.32a11.09,11.09,0,0,1,9.05-14.78,10,10,0,0,1-8.83,15.1"></path><polyline class="cls-17" points="106.59 329.83 100.32 290.5 148.35 291.08 143.61 329.32"></polyline><path class="cls-7" d="M127.31,283.31a8.19,8.19,0,0,0,8,.67,8.63,8.63,0,0,0,4.36-6.89,9.21,9.21,0,0,0-13.25,5.51"></path><path class="cls-7" d="M149.26,291.78a8.19,8.19,0,0,0,8,.68,8.63,8.63,0,0,0,4.36-6.89,9.21,9.21,0,0,0-13.25,5.51"></path><path class="cls-7" d="M136.94,272.86a8.19,8.19,0,0,0,6.29,5,8.63,8.63,0,0,0,7.43-3.36,9.21,9.21,0,0,0-14.1-2.68"></path><path class="cls-7" d="M145,282.67a8.19,8.19,0,0,0-7.17,3.55,8.63,8.63,0,0,0-.17,8.15,9.21,9.21,0,0,0,8.48-11.57"></path><path class="cls-7" d="M152.69,298.15a8.19,8.19,0,0,0,.19,8,8.63,8.63,0,0,0,7.32,3.59,9.79,9.79,0,0,0-.45-8c-1.26-2.3-3.54-3.43-6.39-4.08"></path><path class="cls-7" d="M165.45,300a5.75,5.75,0,0,0-1.9-1.21,8.18,8.18,0,0,0-2.6-.46,31.28,31.28,0,0,0-3.54.21,10.36,10.36,0,0,1-4.36-.37,6.69,6.69,0,0,1-3.6-3.48,19.92,19.92,0,0,1-1.55-5.31A15.26,15.26,0,0,0,146,283.9a19.23,19.23,0,0,0-4.06-4.13,19.67,19.67,0,0,1-3.89-3.94,13,13,0,0,1-1.93-9,12.68,12.68,0,0,1,2.36-5.81,9.7,9.7,0,0,1,1.15-1.27,2.55,2.55,0,0,1,.45-.39,2.62,2.62,0,0,1-.38.46,12.46,12.46,0,0,0-1.06,1.31,13,13,0,0,0-2.16,5.74,12.75,12.75,0,0,0,2,8.72,19.5,19.5,0,0,0,3.82,3.82,19.45,19.45,0,0,1,4.17,4.24,15.58,15.58,0,0,1,1.91,5.63,19.74,19.74,0,0,0,1.48,5.2,6.27,6.27,0,0,0,3.32,3.29,10.13,10.13,0,0,0,4.19.41A29.31,29.31,0,0,1,161,298a8,8,0,0,1,2.67.56,4.44,4.44,0,0,1,1.44.94,2.49,2.49,0,0,1,.3.33S165.46,300,165.45,300Z"></path><path class="cls-7" d="M165.45,300a5.75,5.75,0,0,0-1.9-1.21,8.18,8.18,0,0,0-2.6-.46,31.28,31.28,0,0,0-3.54.21,10.36,10.36,0,0,1-4.36-.37,6.69,6.69,0,0,1-3.6-3.48,19.92,19.92,0,0,1-1.55-5.31A15.26,15.26,0,0,0,146,283.9a19.23,19.23,0,0,0-4.06-4.13,19.67,19.67,0,0,1-3.89-3.94,13,13,0,0,1-1.93-9,12.68,12.68,0,0,1,2.36-5.81,9.7,9.7,0,0,1,1.15-1.27,2.55,2.55,0,0,1,.45-.39,2.62,2.62,0,0,1-.38.46,12.46,12.46,0,0,0-1.06,1.31,13,13,0,0,0-2.16,5.74,12.75,12.75,0,0,0,2,8.72,19.5,19.5,0,0,0,3.82,3.82,19.45,19.45,0,0,1,4.17,4.24,15.58,15.58,0,0,1,1.91,5.63,19.74,19.74,0,0,0,1.48,5.2,6.27,6.27,0,0,0,3.32,3.29,10.13,10.13,0,0,0,4.19.41A29.31,29.31,0,0,1,161,298a8,8,0,0,1,2.67.56,4.44,4.44,0,0,1,1.44.94,2.49,2.49,0,0,1,.3.33S165.46,300,165.45,300Z"></path><path class="cls-7" d="M73.78,304a12.15,12.15,0,0,0-16.44-12,20.26,20.26,0,0,0,16,11.82"></path><path class="cls-7" d="M70.6,305.67c-2.35,2.58-2.2,6.73-.52,9.78s4.57,5.23,7.47,7.17a15.78,15.78,0,0,0-6.79-17.89"></path><path class="cls-7" d="M82,293.58a14,14,0,0,0,15.3,12.57l.63-.08c-.91-3.77-2.43-7.58-5.34-10.14s-7.51-3.51-10.74-1.36"></path><path class="cls-7" d="M81.91,289.73c-.59-3.44-4-5.93-7.45-6.25s-6.9,1.16-9.69,3.26a12.59,12.59,0,0,0,17.17,1.7"></path><path class="cls-7" d="M64,319c-3.3,2.82-4.12,7.83-2.75,11.94s4.58,7.39,8.19,9.8c1.39-4.08,2.25-8.45,1.52-12.7s-3.29-8.35-7.23-10.07"></path><path class="cls-7" d="M81.37,280.09a10.14,10.14,0,0,1,16-.94,8.76,8.76,0,0,1-15.8.41"></path><path class="cls-7" d="M85.41,270.18a13.17,13.17,0,0,1-16.8-10.3,30.06,30.06,0,0,1,7.94.12,12.91,12.91,0,0,1,7,3.46,7,7,0,0,1,1.84,6.72"></path><path class="cls-7" d="M93,267.61A10.77,10.77,0,0,1,93,251a22.54,22.54,0,0,1,4.71,10,8.46,8.46,0,0,1,0,4.16,3.83,3.83,0,0,1-2.91,2.72"></path><g class="cls-15"><path d="M73.78,304a12.15,12.15,0,0,0-16.44-12,20.26,20.26,0,0,0,16,11.82"></path></g><g class="cls-15"><path d="M70.6,305.67c-2.35,2.58-2.2,6.73-.52,9.78s4.57,5.23,7.47,7.17a15.78,15.78,0,0,0-6.79-17.89"></path></g><g class="cls-15"><path d="M82,293.58a14,14,0,0,0,15.3,12.57l.63-.08c-.91-3.77-2.43-7.58-5.34-10.14s-7.51-3.51-10.74-1.36"></path></g><g class="cls-15"><path d="M81.91,289.73c-.59-3.44-4-5.93-7.45-6.25s-6.9,1.16-9.69,3.26a12.59,12.59,0,0,0,17.17,1.7"></path></g><g class="cls-15"><path d="M64,319c-3.3,2.82-4.12,7.83-2.75,11.94s4.58,7.39,8.19,9.8c1.39-4.08,2.25-8.45,1.52-12.7s-3.29-8.35-7.23-10.07"></path></g><g class="cls-15"><path d="M81.37,280.09a10.14,10.14,0,0,1,16-.94,8.76,8.76,0,0,1-15.8.41"></path></g><g class="cls-15"><path d="M85.41,270.18a13.17,13.17,0,0,1-16.8-10.3,30.06,30.06,0,0,1,7.94.12,12.91,12.91,0,0,1,7,3.46,7,7,0,0,1,1.84,6.72"></path></g><g class="cls-15"><path d="M93,267.61A10.77,10.77,0,0,1,93,251a22.54,22.54,0,0,1,4.71,10,8.46,8.46,0,0,1,0,4.16,3.83,3.83,0,0,1-2.91,2.72"></path></g><path class="cls-7" d="M106.21,291.76a1,1,0,0,1,0-.27v-.79c0-.69.11-1.72.13-3a27.17,27.17,0,0,0-1.79-10.91,16.65,16.65,0,0,0-4.39-6.17,11.71,11.71,0,0,0-8-2.94,10,10,0,0,0-4.51,1.13,9,9,0,0,0-3.48,3.32c-1.74,2.87-2.17,6.48-2,10s.64,7.12.24,10.56a16.15,16.15,0,0,1-1.31,4.89,10.26,10.26,0,0,1-3,3.87,14.85,14.85,0,0,1-4.11,2.1,21,21,0,0,0-3.88,1.76A14.06,14.06,0,0,0,65,310.86a13.43,13.43,0,0,0-1.47,6.07,14.25,14.25,0,0,0,.77,4.69,17.42,17.42,0,0,0,1.9,3.62A1,1,0,0,1,66,325a7.9,7.9,0,0,1-.46-.65,12.78,12.78,0,0,1-1.37-2.73,14.15,14.15,0,0,1-.87-4.76,13.62,13.62,0,0,1,1.43-6.24A14.37,14.37,0,0,1,70,304.94c2.38-1.58,5.51-2,7.92-3.87s3.69-5.14,4.06-8.45-.12-6.86-.25-10.48.28-7.31,2.11-10.32a9.45,9.45,0,0,1,3.68-3.5,10.46,10.46,0,0,1,4.73-1.17,12.14,12.14,0,0,1,8.28,3.09A16.93,16.93,0,0,1,105,276.6a22.81,22.81,0,0,1,1.51,6.23,34.27,34.27,0,0,1,.14,4.83c-.05,1.32-.15,2.35-.23,3l-.1.79A1.05,1.05,0,0,1,106.21,291.76Z"></path><g class="cls-15"><path d="M106.21,291.76a1,1,0,0,1,0-.27v-.79c0-.69.11-1.72.13-3a27.17,27.17,0,0,0-1.79-10.91,16.65,16.65,0,0,0-4.39-6.17,11.71,11.71,0,0,0-8-2.94,10,10,0,0,0-4.51,1.13,9,9,0,0,0-3.48,3.32c-1.74,2.87-2.17,6.48-2,10s.64,7.12.24,10.56a16.15,16.15,0,0,1-1.31,4.89,10.26,10.26,0,0,1-3,3.87,14.85,14.85,0,0,1-4.11,2.1,21,21,0,0,0-3.88,1.76A14.06,14.06,0,0,0,65,310.86a13.43,13.43,0,0,0-1.47,6.07,14.25,14.25,0,0,0,.77,4.69,17.42,17.42,0,0,0,1.9,3.62A1,1,0,0,1,66,325a7.9,7.9,0,0,1-.46-.65,12.78,12.78,0,0,1-1.37-2.73,14.15,14.15,0,0,1-.87-4.76,13.62,13.62,0,0,1,1.43-6.24A14.37,14.37,0,0,1,70,304.94c2.38-1.58,5.51-2,7.92-3.87s3.69-5.14,4.06-8.45-.12-6.86-.25-10.48.28-7.31,2.11-10.32a9.45,9.45,0,0,1,3.68-3.5,10.46,10.46,0,0,1,4.73-1.17,12.14,12.14,0,0,1,8.28,3.09A16.93,16.93,0,0,1,105,276.6a22.81,22.81,0,0,1,1.51,6.23,34.27,34.27,0,0,1,.14,4.83c-.05,1.32-.15,2.35-.23,3l-.1.79A1.05,1.05,0,0,1,106.21,291.76Z"></path></g><path class="cls-7" d="M176.13,283.18a10.21,10.21,0,0,0,.72-3.52,8.8,8.8,0,0,0-.94-4.06,8.68,8.68,0,0,0-7-4.62,10,10,0,0,0-3.45.41c-2.35.62-4.68,2-7.46,2.51a8.8,8.8,0,0,1-4.33-.11,6.5,6.5,0,0,1-3.53-2.82c-1.68-2.6-2.15-5.87-4.18-8.26a8.25,8.25,0,0,0-3.79-2.48,10.65,10.65,0,0,0-4.43-.45,11.36,11.36,0,0,0-7.37,3.84,17.32,17.32,0,0,0-3.66,6.77,20.43,20.43,0,0,0-.82,6.71,73.53,73.53,0,0,0,1.25,9.81l.46,2.66.1.69a.83.83,0,0,1,0,.24.83.83,0,0,1-.07-.23l-.15-.68-.56-2.64a66.75,66.75,0,0,1-1.41-9.84,20.62,20.62,0,0,1,.77-6.84,17.67,17.67,0,0,1,3.72-7,13.19,13.19,0,0,1,3.37-2.7,11.61,11.61,0,0,1,9-.86,8.76,8.76,0,0,1,4,2.63c2.14,2.57,2.6,5.86,4.21,8.33a6,6,0,0,0,3.25,2.62,8.35,8.35,0,0,0,4.09.11c2.68-.51,5-1.83,7.44-2.45a10.41,10.41,0,0,1,3.6-.39,8.89,8.89,0,0,1,3.22.9,8.73,8.73,0,0,1,4,4,8.87,8.87,0,0,1,.88,4.2,8.37,8.37,0,0,1-.52,2.66A4.3,4.3,0,0,1,176.13,283.18Z"></path><path class="cls-7" d="M148,265.75a9.33,9.33,0,0,0,8.56.56,8.63,8.63,0,0,0,4.36-6.89,9.21,9.21,0,0,0-13.25,5.51"></path><path class="cls-7" d="M157.15,274a9.33,9.33,0,0,0,4,7.61,8.63,8.63,0,0,0,8.15.14,9.21,9.21,0,0,0-11.6-8.44"></path><path class="cls-7" d="M172.95,272.18a9.33,9.33,0,0,0,8.58-.35,8.63,8.63,0,0,0,3.6-7.32,9.21,9.21,0,0,0-12.59,6.89"></path><path class="cls-7" d="M134.78,260.24c-2.3-2-3.84-5.47-3.4-8.08a8.63,8.63,0,0,1,5.29-6.2,9.21,9.21,0,0,1-1.35,14.28"></path><path class="cls-7" d="M73.11,249a.76.76,0,0,1,.09-.21l.32-.59A24.74,24.74,0,0,1,74.91,246a23.37,23.37,0,0,1,6.87-6.49,16.86,16.86,0,0,1,6.17-2.27,15.26,15.26,0,0,1,7.49.79,12.15,12.15,0,0,1,6.41,5.25c1.47,2.57,1.95,5.59,2.81,8.47a15.36,15.36,0,0,0,1.79,4,12.24,12.24,0,0,0,3,3c1.15.85,2.34,1.61,3.43,2.49a14.77,14.77,0,0,1,2.79,3,18.57,18.57,0,0,1,2.86,7,24.77,24.77,0,0,1,.38,6.55,49.87,49.87,0,0,1-1.68,9.33c-.28,1.08-.52,1.92-.69,2.48a5.76,5.76,0,0,1-.28.85,5.82,5.82,0,0,1,.18-.88l.59-2.5a53.82,53.82,0,0,0,1.51-9.3,24.71,24.71,0,0,0-.44-6.45,18.25,18.25,0,0,0-2.83-6.79,14.34,14.34,0,0,0-2.71-2.91c-1.06-.86-2.25-1.61-3.42-2.47A12.7,12.7,0,0,1,106,256a15.8,15.8,0,0,1-1.86-4.18c-.87-2.93-1.34-5.91-2.75-8.37a11.7,11.7,0,0,0-6.13-5.05,14.89,14.89,0,0,0-7.26-.81,16.63,16.63,0,0,0-6,2.15,24,24,0,0,0-6.9,6.3c-.67.89-1.15,1.61-1.46,2.11A5.8,5.8,0,0,1,73.11,249Z"></path><path class="cls-7" d="M110.84,259.55c-.79-.74-1.18-.22-2.25,0a6.64,6.64,0,0,0-2.88,1.44,12.15,12.15,0,0,0-3.94,12.75,9.48,9.48,0,0,0,8.71-14.24"></path><path class="cls-7" d="M78.2,244.7c-.4-1-1-.71-2-1a6.64,6.64,0,0,0-3.22.06,12.15,12.15,0,0,0-9,9.81,9.48,9.48,0,0,0,14-9.11"></path><path class="cls-7" d="M118,279.66a10.94,10.94,0,0,0-17.2.84,13.54,13.54,0,0,0,8.92,3.52,13.83,13.83,0,0,0,9-3.64"></path><path class="cls-7" d="M115.35,264.64a11.09,11.09,0,0,0,11.2-13.23A10,10,0,0,0,115,264.53"></path><path class="cls-7" d="M103.86,247a11.09,11.09,0,0,0,15-8.76,10,10,0,0,0-15.27,8.53"></path><path class="cls-7" d="M100,241.24A11.09,11.09,0,0,0,85,250a10,10,0,0,0,15.27-8.53"></path><path class="cls-7" d="M95.42,238.13a11.09,11.09,0,0,0,5.9-16.3A10,10,0,0,0,95,238.15"></path><path class="cls-7" d="M83.66,238.69a11.09,11.09,0,0,0-9.05-14.78A10,10,0,0,0,83.44,239"></path><polygon class="cls-17" points="99.71 325.28 103.38 329.83 148.58 329.83 151.66 325.28 99.71 325.28"></polygon><path class="cls-8" d="M150.67,325.24c0,.14-11.11.26-24.8.26s-24.81-.12-24.81-.26,11.1-.26,24.81-.26S150.67,325.09,150.67,325.24Z"></path><path class="cls-8" d="M145.59,308.07a2.64,2.64,0,0,1-.28.37,10,10,0,0,1-.92,1,16.86,16.86,0,0,1-4,2.8,17.76,17.76,0,0,1-7.06,1.81,17,17,0,0,1-4.32-.36,25.44,25.44,0,0,1-4.4-1.46c-2.91-1.24-5.56-2.65-8.14-3.47a14,14,0,0,0-7-.68,9.15,9.15,0,0,0-4.31,2c-.86.75-1.19,1.32-1.23,1.28a1.58,1.58,0,0,1,.23-.41,6.54,6.54,0,0,1,.87-1,9,9,0,0,1,4.38-2.21,14.11,14.11,0,0,1,7.25.58c2.64.81,5.32,2.23,8.2,3.45a25.58,25.58,0,0,0,4.31,1.44,16.8,16.8,0,0,0,4.19.38,17.9,17.9,0,0,0,6.92-1.66A21.41,21.41,0,0,0,145.59,308.07Z"></path><path class="cls-8" d="M146,304.54a2.92,2.92,0,0,1-.31.35,11,11,0,0,1-1,.9,18.68,18.68,0,0,1-4.18,2.6,19.67,19.67,0,0,1-7.1,1.7,19.36,19.36,0,0,1-4.33-.29,29.1,29.1,0,0,1-4.47-1.26c-3-1.08-5.72-2.33-8.34-3.06a16.55,16.55,0,0,0-7.09-.64,10.64,10.64,0,0,0-4.48,1.71c-.94.66-1.35,1.16-1.39,1.12s.08-.14.28-.37a7.58,7.58,0,0,1,1-.91,10.3,10.3,0,0,1,4.54-1.91,16.5,16.5,0,0,1,7.28.54c2.67.72,5.43,2,8.38,3a29.43,29.43,0,0,0,4.39,1.25,19.29,19.29,0,0,0,4.21.31,19.93,19.93,0,0,0,7-1.55A24.74,24.74,0,0,0,146,304.54Z"></path></g><g id="Boxes"><rect class="cls-7" x="26.89" y="371.57" width="96.13" height="64.34"></rect><g class="cls-15"><rect x="26.89" y="371.57" width="96.13" height="64.34"></rect></g><rect class="cls-7" x="103.52" y="371.66" width="7.63" height="13.05"></rect><rect class="cls-7" x="102.69" y="422.86" width="7.63" height="13.05"></rect><path class="cls-10" d="M54.4,435.77c-.14,0-.26-14.42-.26-32.21s.12-32.21.26-32.21.26,14.42.26,32.21S54.55,435.77,54.4,435.77Z"></path><path class="cls-10" d="M88.49,406.61c0,.14-13.86.26-31,.26s-31-.12-31-.26,13.85-.26,31-.26S88.49,406.46,88.49,406.61Z"></path><path class="cls-10" d="M55.93,371.41a17.79,17.79,0,0,1,2.23-1.66,25.09,25.09,0,0,1,12.78-4,4.64,4.64,0,0,1,1.61.13,1.47,1.47,0,0,1,1.06,1.36,2.12,2.12,0,0,1-.68,1.64,4.61,4.61,0,0,1-1.56.91,30.41,30.41,0,0,1-15.83,1.53h-.2v-.2a38.25,38.25,0,0,1,2.31-10,36.19,36.19,0,0,1,2.32-5,6.56,6.56,0,0,1,1.9-2.17,3.55,3.55,0,0,1,2.92-.54,3,3,0,0,1,2,2.26,4.92,4.92,0,0,1-.3,3,26.14,26.14,0,0,1-3.16,5.16,33.57,33.57,0,0,1-9.23,8.32l-.1.09h-.1l-1.1-.29-1.12-.37a19.51,19.51,0,0,1-8.07-5.69A18.43,18.43,0,0,1,41,361.74a4.56,4.56,0,0,1-.63-2.39,1.32,1.32,0,0,1,.8-1.12,1.87,1.87,0,0,1,1.32.06,19.44,19.44,0,0,1,11.1,13.29l-.45.14A52.25,52.25,0,0,1,49.31,352a5.88,5.88,0,0,1,.4-2.26,2.43,2.43,0,0,1,.69-.94,1.8,1.8,0,0,1,1.11-.38,2.24,2.24,0,0,1,1.81,1.19,6.17,6.17,0,0,1,.77,1.91,55.36,55.36,0,0,1,1,7.18,55.49,55.49,0,0,1-.25,10.18c-.14,1.17-.28,2.07-.39,2.67l-.13.68a1.09,1.09,0,0,1-.06.23,1.09,1.09,0,0,1,0-.23l.09-.69c.08-.61.2-1.5.32-2.67a58.42,58.42,0,0,0,.12-10.15,56.12,56.12,0,0,0-1-7.13,5.84,5.84,0,0,0-.74-1.79,1.89,1.89,0,0,0-1.51-1A1.6,1.6,0,0,0,50,349.86a5.51,5.51,0,0,0-.36,2.11,52.14,52.14,0,0,0,3.88,19.6l-.45.14a19,19,0,0,0-10.82-12.92,1.39,1.39,0,0,0-1-.07.8.8,0,0,0-.48.71,4.14,4.14,0,0,0,.58,2.11,17.93,17.93,0,0,0,2.55,4,19,19,0,0,0,7.85,5.53l1.09.36,1.07.28h-.19a33.13,33.13,0,0,0,9.09-8.18,25.81,25.81,0,0,0,3.09-5,4.42,4.42,0,0,0,.29-2.72,2.55,2.55,0,0,0-1.64-1.91,3.07,3.07,0,0,0-2.5.48,6.1,6.1,0,0,0-1.76,2,35.91,35.91,0,0,0-2.3,4.9,38,38,0,0,0-2.32,9.89l-.18-.23a30.16,30.16,0,0,0,15.63-1.43,4.29,4.29,0,0,0,1.45-.83,1.78,1.78,0,0,0,.58-1.38,1.14,1.14,0,0,0-.83-1.06,4.4,4.4,0,0,0-1.5-.12,24.82,24.82,0,0,0-5.53.75,25.43,25.43,0,0,0-7.19,3c-.77.47-1.34.87-1.71,1.14A4.8,4.8,0,0,0,55.93,371.41Z"></path><rect class="cls-7" x="88.29" y="329.83" width="158.6" height="106.15"></rect><g class="cls-18"><rect x="191.75" y="329.83" width="55.14" height="106.15"></rect></g><rect class="cls-7" x="214.72" y="329.97" width="12.59" height="21.53"></rect><rect class="cls-7" x="213.34" y="414.45" width="12.59" height="21.53"></rect><path class="cls-10" d="M133.69,435.75c-.14,0-.26-23.79-.26-53.14s.12-53.14.26-53.14.26,23.79.26,53.14S133.83,435.75,133.69,435.75Z"></path></g><g id="Socks"><g class="cls-22"><path class="cls-7" d="M172.74,200.4l16.85-12.24,21.9,25.93a11.09,11.09,0,0,1,2.25,10l-7.38,28a9.38,9.38,0,0,1-9.73,7h0a9.38,9.38,0,0,1-8.69-10q0-.29.06-.58l3.23-25.25Z"></path><path class="cls-9" d="M188.9,221.77a6.87,6.87,0,0,1-.44-1,25.78,25.78,0,0,1-1-2.74,33.62,33.62,0,0,1,0-18.89,25.8,25.8,0,0,1,1-2.73,6.87,6.87,0,0,1,.44-1,6.91,6.91,0,0,1-.33,1c-.24.64-.54,1.58-.86,2.75a35.74,35.74,0,0,0,0,18.77c.32,1.17.62,2.11.85,2.75A6.9,6.9,0,0,1,188.9,221.77Z"></path><path class="cls-9" d="M189.27,209.57a11.56,11.56,0,0,0-1.83,8.25,3.55,3.55,0,0,1-.32-1.25,9.13,9.13,0,0,1,1.33-6A3.55,3.55,0,0,1,189.27,209.57Z"></path><path class="cls-9" d="M183.65,204a3.19,3.19,0,0,1,.78.86,9.83,9.83,0,0,1,1.85,5.24,3.19,3.19,0,0,1-.07,1.16,13.94,13.94,0,0,0-2.56-7.26Z"></path><path class="cls-9" d="M189.66,200.86a10.06,10.06,0,0,0-3.17,5.75A6.67,6.67,0,0,1,189.66,200.86Z"></path><path class="cls-9" d="M187,195.8a6.26,6.26,0,0,1-.09,5.25c-.09,0,.29-1.17.31-2.62A22,22,0,0,0,187,195.8Z"></path><path class="cls-9" d="M207.25,257.4a6.86,6.86,0,0,1-.44-1,25.79,25.79,0,0,1-1-2.74,33.62,33.62,0,0,1,0-18.89,25.81,25.81,0,0,1,1-2.73,6.87,6.87,0,0,1,.44-1,6.93,6.93,0,0,1-.33,1c-.24.64-.54,1.58-.86,2.75a35.75,35.75,0,0,0,0,18.77c.32,1.17.62,2.11.85,2.75A6.92,6.92,0,0,1,207.25,257.4Z"></path><path class="cls-9" d="M207.63,245.24a11.56,11.56,0,0,0-1.83,8.25,3.55,3.55,0,0,1-.32-1.25,9.13,9.13,0,0,1,1.33-6A3.55,3.55,0,0,1,207.63,245.24Z"></path><path class="cls-9" d="M202,239.62a3.19,3.19,0,0,1,.78.86,9.83,9.83,0,0,1,1.85,5.24,3.19,3.19,0,0,1-.07,1.16,13.94,13.94,0,0,0-2.56-7.26Z"></path><path class="cls-9" d="M208,236.5a10.06,10.06,0,0,0-3.17,5.75A6.67,6.67,0,0,1,208,236.5Z"></path><path class="cls-9" d="M205.39,231.44a6.26,6.26,0,0,1-.09,5.25c-.09,0,.29-1.17.31-2.62S205.3,231.46,205.39,231.44Z"></path><path class="cls-9" d="M198.67,243.13a6.88,6.88,0,0,1-.44-1,25.79,25.79,0,0,1-1-2.74,33.62,33.62,0,0,1,0-18.89,25.8,25.8,0,0,1,1-2.73,6.86,6.86,0,0,1,.44-1,6.92,6.92,0,0,1-.33,1c-.24.64-.54,1.58-.86,2.75a35.75,35.75,0,0,0,0,18.77c.32,1.17.62,2.11.85,2.75A6.91,6.91,0,0,1,198.67,243.13Z"></path><path class="cls-9" d="M199,230.94a11.56,11.56,0,0,0-1.83,8.25,3.55,3.55,0,0,1-.32-1.25,9.13,9.13,0,0,1,1.33-6A3.55,3.55,0,0,1,199,230.94Z"></path><path class="cls-9" d="M193.42,225.35a3.19,3.19,0,0,1,.78.86,9.83,9.83,0,0,1,1.85,5.24,3.19,3.19,0,0,1-.07,1.16,13.94,13.94,0,0,0-2.56-7.26Z"></path><path class="cls-9" d="M199.43,222.24a10.06,10.06,0,0,0-3.17,5.75A6.67,6.67,0,0,1,199.43,222.24Z"></path><path class="cls-9" d="M180.44,210.65a6.88,6.88,0,0,1-.44-1,25.79,25.79,0,0,1-1-2.74A33.62,33.62,0,0,1,179,188a25.8,25.8,0,0,1,1-2.73,6.86,6.86,0,0,1,.44-1,6.92,6.92,0,0,1-.33,1c-.24.64-.54,1.58-.86,2.75a35.75,35.75,0,0,0,0,18.77c.32,1.17.62,2.11.85,2.75A6.91,6.91,0,0,1,180.44,210.65Z"></path><path class="cls-9" d="M180.82,198.45A11.56,11.56,0,0,0,179,206.7a3.55,3.55,0,0,1-.32-1.25,9.13,9.13,0,0,1,1.33-6A3.55,3.55,0,0,1,180.82,198.45Z"></path><path class="cls-9" d="M175.19,192.87a3.19,3.19,0,0,1,.78.86,9.83,9.83,0,0,1,1.85,5.24,3.19,3.19,0,0,1-.07,1.16,13.94,13.94,0,0,0-2.56-7.26Z"></path><path class="cls-9" d="M181.21,189.75A10.06,10.06,0,0,0,178,195.5,6.67,6.67,0,0,1,181.21,189.75Z"></path><path class="cls-9" d="M195.62,193.77a6.89,6.89,0,0,1,.63.85,25.81,25.81,0,0,1,1.52,2.47,33.62,33.62,0,0,1,4,18.45,25.8,25.8,0,0,1-.35,2.88,6.87,6.87,0,0,1-.22,1,6.9,6.9,0,0,1,.1-1.06c.09-.67.18-1.66.25-2.87a35.75,35.75,0,0,0-4-18.34c-.56-1.08-1.06-1.93-1.42-2.51A6.91,6.91,0,0,1,195.62,193.77Z"></path><path class="cls-9" d="M197.87,205.77a11.56,11.56,0,0,0,0-8.45,3.55,3.55,0,0,1,.58,1.15,9.13,9.13,0,0,1,0,6.14A3.55,3.55,0,0,1,197.87,205.77Z"></path><path class="cls-9" d="M204.56,210a3.19,3.19,0,0,1-.95-.67,9.83,9.83,0,0,1-2.93-4.72,3.19,3.19,0,0,1-.18-1.15,13.94,13.94,0,0,0,4.06,6.54Z"></path><path class="cls-9" d="M199.36,214.35a10.06,10.06,0,0,0,1.86-6.3A6.67,6.67,0,0,1,199.36,214.35Z"></path><path class="cls-9" d="M203,218.73a6.26,6.26,0,0,1-1-5.15c.09,0,0,1.2.26,2.63S203.09,218.69,203,218.73Z"></path><path class="cls-9" d="M206.66,214.09a6.88,6.88,0,0,1,.63.85,25.81,25.81,0,0,1,1.52,2.47,33.62,33.62,0,0,1,4,18.45,25.8,25.8,0,0,1-.35,2.88,6.87,6.87,0,0,1-.22,1,6.9,6.9,0,0,1,.1-1.06c.09-.67.18-1.66.25-2.87a35.75,35.75,0,0,0-4-18.34c-.56-1.08-1.06-1.93-1.42-2.51A6.91,6.91,0,0,1,206.66,214.09Z"></path><path class="cls-9" d="M208.91,226.09a11.56,11.56,0,0,0,0-8.45,3.55,3.55,0,0,1,.58,1.15,9.13,9.13,0,0,1,0,6.14A3.55,3.55,0,0,1,208.91,226.09Z"></path><path class="cls-9" d="M215.6,230.33a3.19,3.19,0,0,1-.95-.67,9.83,9.83,0,0,1-2.93-4.72,3.19,3.19,0,0,1-.18-1.15,13.94,13.94,0,0,0,4.06,6.54Z"></path><path class="cls-9" d="M210.4,234.67a10.06,10.06,0,0,0,1.86-6.3A6.67,6.67,0,0,1,210.4,234.67Z"></path><path class="cls-9" d="M214.05,239a6.26,6.26,0,0,1-1-5.15c.09,0,0,1.2.26,2.63S214.13,239,214.05,239Z"></path><path class="cls-9" d="M181.44,229.49a6.86,6.86,0,0,1,.86.62,25.8,25.8,0,0,1,2.19,1.9,33.62,33.62,0,0,1,9.39,16.39,25.79,25.79,0,0,1,.53,2.85,6.86,6.86,0,0,1,.1,1.06,6.91,6.91,0,0,1-.22-1c-.11-.67-.32-1.64-.63-2.81a35.75,35.75,0,0,0-9.33-16.29c-.86-.86-1.59-1.53-2.11-2A6.94,6.94,0,0,1,181.44,229.49Z"></path><path class="cls-9" d="M187.19,240.24a11.56,11.56,0,0,0-2.52-8.06,3.55,3.55,0,0,1,.9.93A9.13,9.13,0,0,1,187.4,239,3.55,3.55,0,0,1,187.19,240.24Z"></path><path class="cls-9" d="M194.85,242.24a3.19,3.19,0,0,1-1.11-.35,9.83,9.83,0,0,1-4.21-3.62,3.19,3.19,0,0,1-.52-1,13.94,13.94,0,0,0,5.83,5Z"></path><path class="cls-9" d="M191.19,248a10.06,10.06,0,0,0-.12-6.57A6.67,6.67,0,0,1,191.19,248Z"></path><path class="cls-9" d="M196,251.07a6.26,6.26,0,0,1-2.53-4.6c.09,0,.33,1.16,1,2.43A18.23,18.23,0,0,0,196,251.07Z"></path><path class="cls-9" d="M217.55,232a11.09,11.09,0,0,1-6.35-19.64l9.34,5.94Z"></path></g><path class="cls-23" d="M211.48,214.09l-21.9-25.93L172.73,200.4l18.5,22.84L188,248.49a9.42,9.42,0,0,0-.07,1.34,11.16,11.16,0,0,1,16.85,5.52,9.35,9.35,0,0,0,1.6-3.27l7.38-28A11.09,11.09,0,0,0,211.48,214.09Z"></path><path class="cls-24" d="M199,248.92a11.5,11.5,0,0,0-11,.91,9.37,9.37,0,0,0,16.85,5.52A11.49,11.49,0,0,0,199,248.92Z"></path><g class="cls-25"><path class="cls-7" d="M181.44,191.43l16.85-12.19,21.9,25.93a11.1,11.1,0,0,1,2.25,10l-7.38,28a9.38,9.38,0,0,1-9.73,7h0a9.38,9.38,0,0,1-8.7-10q0-.28.05-.55l3.25-25.37Z"></path><path class="cls-9" d="M197.6,212.8a6.85,6.85,0,0,1-.44-1,25.78,25.78,0,0,1-1-2.74,33.62,33.62,0,0,1,0-18.89,25.79,25.79,0,0,1,1-2.73,6.87,6.87,0,0,1,.44-1,6.9,6.9,0,0,1-.33,1c-.24.64-.54,1.58-.86,2.75a35.75,35.75,0,0,0,0,18.77c.32,1.17.62,2.11.85,2.75A6.93,6.93,0,0,1,197.6,212.8Z"></path><path class="cls-9" d="M198,200.6a11.56,11.56,0,0,0-1.83,8.25,3.55,3.55,0,0,1-.32-1.25,9.13,9.13,0,0,1,1.33-6A3.55,3.55,0,0,1,198,200.6Z"></path><path class="cls-9" d="M192.35,195a3.19,3.19,0,0,1,.78.86,9.83,9.83,0,0,1,1.85,5.24,3.18,3.18,0,0,1-.07,1.16,13.94,13.94,0,0,0-2.56-7.26Z"></path><path class="cls-9" d="M198.36,191.9a10.06,10.06,0,0,0-3.17,5.75A6.67,6.67,0,0,1,198.36,191.9Z"></path><path class="cls-9" d="M195.74,186.84a6.26,6.26,0,0,1-.09,5.25c-.09,0,.29-1.17.31-2.62S195.65,186.86,195.74,186.84Z"></path><path class="cls-9" d="M215.95,248.44a6.88,6.88,0,0,1-.44-1,25.79,25.79,0,0,1-1-2.74,33.62,33.62,0,0,1,0-18.89,25.81,25.81,0,0,1,1-2.73,6.86,6.86,0,0,1,.44-1,6.92,6.92,0,0,1-.33,1c-.24.64-.54,1.58-.86,2.75a35.75,35.75,0,0,0,0,18.77c.32,1.17.62,2.11.85,2.75A6.91,6.91,0,0,1,215.95,248.44Z"></path><path class="cls-9" d="M216.33,236.24a11.56,11.56,0,0,0-1.83,8.25,3.55,3.55,0,0,1-.32-1.25,9.13,9.13,0,0,1,1.33-6A3.55,3.55,0,0,1,216.33,236.24Z"></path><path class="cls-9" d="M210.7,230.66a3.19,3.19,0,0,1,.78.86,9.83,9.83,0,0,1,1.85,5.24,3.19,3.19,0,0,1-.07,1.16,13.94,13.94,0,0,0-2.56-7.26Z"></path><path class="cls-9" d="M216.72,227.54a10.06,10.06,0,0,0-3.17,5.75A6.67,6.67,0,0,1,216.72,227.54Z"></path><path class="cls-9" d="M214.09,222.47a6.26,6.26,0,0,1-.09,5.25c-.09,0,.29-1.17.31-2.62S214,222.5,214.09,222.47Z"></path><path class="cls-9" d="M207.37,234.17a6.88,6.88,0,0,1-.44-1,25.81,25.81,0,0,1-1-2.74,33.62,33.62,0,0,1,0-18.89,25.81,25.81,0,0,1,1-2.73,6.86,6.86,0,0,1,.44-1,6.92,6.92,0,0,1-.33,1c-.24.64-.54,1.58-.86,2.75a35.75,35.75,0,0,0,0,18.77c.32,1.17.62,2.11.85,2.75A6.89,6.89,0,0,1,207.37,234.17Z"></path><path class="cls-9" d="M207.74,222a11.57,11.57,0,0,0-1.83,8.25,3.55,3.55,0,0,1-.32-1.25,9.13,9.13,0,0,1,1.33-6A3.55,3.55,0,0,1,207.74,222Z"></path><path class="cls-9" d="M202.12,216.39a3.19,3.19,0,0,1,.78.86,9.83,9.83,0,0,1,1.85,5.24,3.18,3.18,0,0,1-.07,1.16,13.94,13.94,0,0,0-2.56-7.26Z"></path><path class="cls-9" d="M208.13,213.24A10.06,10.06,0,0,0,205,219,6.67,6.67,0,0,1,208.13,213.24Z"></path><path class="cls-9" d="M189.14,201.69a6.88,6.88,0,0,1-.44-1,25.78,25.78,0,0,1-1-2.74,33.62,33.62,0,0,1,0-18.89,25.8,25.8,0,0,1,1-2.73,6.86,6.86,0,0,1,.44-1,6.92,6.92,0,0,1-.33,1c-.24.64-.54,1.58-.86,2.75a35.75,35.75,0,0,0,0,18.77c.32,1.17.62,2.11.85,2.75A6.91,6.91,0,0,1,189.14,201.69Z"></path><path class="cls-9" d="M189.52,189.49a11.56,11.56,0,0,0-1.83,8.25,3.55,3.55,0,0,1-.32-1.25,9.13,9.13,0,0,1,1.33-6A3.55,3.55,0,0,1,189.52,189.49Z"></path><path class="cls-9" d="M183.89,183.91a3.19,3.19,0,0,1,.78.86,9.83,9.83,0,0,1,1.85,5.24,3.19,3.19,0,0,1-.07,1.16,13.94,13.94,0,0,0-2.56-7.26Z"></path><path class="cls-9" d="M189.91,180.78a10.06,10.06,0,0,0-3.17,5.75A6.67,6.67,0,0,1,189.91,180.78Z"></path><path class="cls-9" d="M204.32,184.81a6.86,6.86,0,0,1,.63.85,25.81,25.81,0,0,1,1.52,2.47,33.62,33.62,0,0,1,4,18.45,25.78,25.78,0,0,1-.35,2.88,6.87,6.87,0,0,1-.22,1,6.92,6.92,0,0,1,.1-1.06c.09-.67.18-1.66.25-2.87a35.75,35.75,0,0,0-4-18.34c-.56-1.08-1.06-1.93-1.42-2.51A6.9,6.9,0,0,1,204.32,184.81Z"></path><path class="cls-9" d="M206.57,196.8a11.56,11.56,0,0,0,0-8.45,3.55,3.55,0,0,1,.58,1.15,9.13,9.13,0,0,1,0,6.14A3.55,3.55,0,0,1,206.57,196.8Z"></path><path class="cls-9" d="M213.26,201a3.19,3.19,0,0,1-.95-.67,9.83,9.83,0,0,1-2.93-4.72,3.19,3.19,0,0,1-.18-1.15,13.94,13.94,0,0,0,4.06,6.54Z"></path><path class="cls-9" d="M208.06,205.39a10,10,0,0,0,1.86-6.3A6.67,6.67,0,0,1,208.06,205.39Z"></path><path class="cls-9" d="M211.71,209.77a6.26,6.26,0,0,1-1-5.15c.09,0,0,1.2.26,2.63S211.79,209.72,211.71,209.77Z"></path><path class="cls-9" d="M215.36,205.13a6.87,6.87,0,0,1,.63.85,25.81,25.81,0,0,1,1.52,2.47,33.62,33.62,0,0,1,4,18.45,25.78,25.78,0,0,1-.35,2.88,6.87,6.87,0,0,1-.22,1,6.92,6.92,0,0,1,.1-1.06c.09-.67.18-1.66.25-2.87a35.75,35.75,0,0,0-4-18.34c-.56-1.08-1.06-1.93-1.42-2.51A6.9,6.9,0,0,1,215.36,205.13Z"></path><path class="cls-9" d="M217.61,217.12a11.56,11.56,0,0,0,0-8.45,3.55,3.55,0,0,1,.58,1.15,9.13,9.13,0,0,1,0,6.14A3.55,3.55,0,0,1,217.61,217.12Z"></path><path class="cls-9" d="M224.3,221.37a3.19,3.19,0,0,1-.95-.67,9.83,9.83,0,0,1-2.93-4.72,3.19,3.19,0,0,1-.18-1.15,13.94,13.94,0,0,0,4.06,6.54Z"></path><path class="cls-9" d="M219.1,225.71a10,10,0,0,0,1.86-6.3A6.67,6.67,0,0,1,219.1,225.71Z"></path><path class="cls-9" d="M222.75,230.09a6.26,6.26,0,0,1-1-5.15c.09,0,0,1.2.26,2.63S222.83,230,222.75,230.09Z"></path><path class="cls-9" d="M190.14,220.52a6.86,6.86,0,0,1,.86.62,25.8,25.8,0,0,1,2.19,1.9,33.62,33.62,0,0,1,9.39,16.39,25.79,25.79,0,0,1,.53,2.85,6.87,6.87,0,0,1,.1,1.06,6.91,6.91,0,0,1-.22-1c-.11-.67-.32-1.64-.63-2.81A35.74,35.74,0,0,0,193,223.24c-.86-.86-1.59-1.53-2.11-2A6.92,6.92,0,0,1,190.14,220.52Z"></path><path class="cls-9" d="M195.9,231.24a11.56,11.56,0,0,0-2.52-8.06,3.55,3.55,0,0,1,.9.93,9.13,9.13,0,0,1,1.83,5.86A3.55,3.55,0,0,1,195.9,231.24Z"></path><path class="cls-9" d="M203.55,233.33a3.18,3.18,0,0,1-1.11-.35,9.83,9.83,0,0,1-4.21-3.62,3.19,3.19,0,0,1-.52-1,13.94,13.94,0,0,0,5.83,5Z"></path><path class="cls-9" d="M199.89,239a10.06,10.06,0,0,0-.12-6.57A6.67,6.67,0,0,1,199.89,239Z"></path><path class="cls-9" d="M204.69,242.11a6.26,6.26,0,0,1-2.53-4.6c.09,0,.33,1.16,1,2.43A22.84,22.84,0,0,0,204.69,242.11Z"></path><g class="cls-26"><path class="cls-3" d="M214.14,249.87a11.24,11.24,0,0,0-18.26-8.51l2.12,7.08,9.08,4.43Z"></path></g><g class="cls-26"><path class="cls-3" d="M226.25,223a11.09,11.09,0,0,1-6.35-19.64l9.34,5.94Z"></path></g></g></g><g id="Handbag"><rect class="cls-7" x="460.51" y="212.76" width="29.74" height="44.51" rx="3.58" ry="3.58" transform="translate(78.48 586.7) rotate(-67.85)"></rect><g class="cls-15"><rect x="460.51" y="212.76" width="29.74" height="44.51" rx="3.58" ry="3.58" transform="translate(78.48 586.7) rotate(-67.85)"></rect></g><path class="cls-10" d="M488.29,230.13a2.34,2.34,0,0,1,.22-.53l.7-1.47a35.29,35.29,0,0,0,2.2-5.53,13.38,13.38,0,0,0-.18-8.57,8.76,8.76,0,0,0-3.14-3.92,24.53,24.53,0,0,0-4.94-2.52c-3.52-1.42-7.28-2.14-10.43-1.16a9.61,9.61,0,0,0-3.94,2.36,14.08,14.08,0,0,0-2.45,3.23,29.48,29.48,0,0,0-2.24,5.5l-.49,1.55a.29.29,0,1,1-.1,0c.08-.36.21-.9.4-1.58a26.67,26.67,0,0,1,2.11-5.62,14.19,14.19,0,0,1,2.47-3.37,10,10,0,0,1,4.1-2.51,12.31,12.31,0,0,1,5.29-.37,23.09,23.09,0,0,1,5.47,1.5,24.58,24.58,0,0,1,5,2.59,9.2,9.2,0,0,1,3.29,4.16,13.59,13.59,0,0,1,.09,8.85,31.23,31.23,0,0,1-2.37,5.51c-.33.62-.6,1.1-.79,1.43A2.35,2.35,0,0,1,488.29,230.13Z"></path><rect class="cls-7" x="455.35" y="210.49" width="29.74" height="44.51" rx="3.58" ry="3.58" transform="translate(77.36 580.51) rotate(-67.85)"></rect><g class="cls-27"><path class="cls-3" d="M450.07,223.17a73.73,73.73,0,0,0,8.51,4.76c3,1.24.2,2,5.17,1.46s5.39-.55,6.51.34,1.61,2.2,2.46,2.66a21.62,21.62,0,0,0,2.38,1s3.62,1.51,4.44,1.74c5.84,1.62,7.16.22,8.83,2.67s2.74,2.59,2.74,2.59l1.13-2.78L487,235.49s-2.43-2-3.13-2.46-1-1.45-2.28-.93a7.55,7.55,0,0,1-3.15.49c-.74,0-3.36-.45-3.36-.45l-2.28-.93-.51-2-2.07-1.43-1.12-.16-2.82-.7-3.91-.56-4-1-2.28-.93-3.45-.22Z"></path></g><g class="cls-27"><path class="cls-3" d="M449.26,228.45l5.94,4.63,3,2.53s4,2.21,5.32,2.17a11.39,11.39,0,0,1,3.5.83l2,1.66,2.79,1.13,3.09.4,2.77.08,2.41,1,3.17,1.29,2.91,1.19,1.77.72.45,1.21,1-2.52-8.26-5.61-6.2-.72-5.13-2.09-2.35-2.76-4.15-.33-3.88-1-4.2-2-4.43-1.8Z"></path></g><g class="cls-27"><polygon class="cls-3" points="446.78 231.25 449.45 238.13 451.72 241.26 458.94 244.2 454.46 237.06 450.97 234.76 448.12 231.23 447.24 230.13 446.78 231.25"></polygon></g><g class="cls-27"><polygon class="cls-3" points="458.01 237.77 462.84 242.25 463.63 246.1 468.32 248.01 473.77 250.23 477.36 248.67 481.83 248.2 483.73 248.24 480.06 246.74 475.54 246.97 472.04 246.5 468.42 243.41 464.37 241.76 463.21 239.88 461.26 238.5 458.01 237.77"></polygon></g><g class="cls-27"><path class="cls-3" d="M453.4,218.77l6.9,1.18,5.73-1.36,4-1,4.33,2.79,5,2.34,6.23,1.21,4,.43,3.08,2.58,1.42,4.86.09,1.24-.56,1.38-3.47-5.26a35,35,0,0,0-2.83-2.48c-.38-.15-2.13-1.31-2.91-1.19a14.91,14.91,0,0,1-5-.72c-1.83-.6-5.06-1.47-5.06-1.47l-3-1.83-1.77-.72h-4.29l-2.44.93-2.22,1.11-3.67-1.5-5.3-1.65.78-1.93Z"></path></g><g class="cls-27"><polygon class="cls-3" points="461.21 213.49 453.28 215.29 452.69 216.74 457.24 216.79 461.54 216.41 464.35 214.77 461.21 213.49"></polygon></g><path class="cls-10" d="M481.9,253.54a4.68,4.68,0,0,0,1.41.21,3.65,3.65,0,0,0,1.69-.51,3.53,3.53,0,0,0,1.51-1.72l5.67-14.16,1.89-4.69c.32-.81.69-1.66,1-2.48a3.36,3.36,0,0,0-.29-2.54,3.59,3.59,0,0,0-2.09-1.66l-2.76-1.12-5.77-2.34L458.5,212.11a3.33,3.33,0,0,0-3.23.4,3.24,3.24,0,0,0-1,1.29l-.68,1.65L450.92,222l-5,12.37a4.48,4.48,0,0,0-.42,1.45,3.39,3.39,0,0,0,.2,1.44,3.35,3.35,0,0,0,2,2l5.43,2.22,9.74,4,14.1,5.83,3.82,1.61,1,.43.33.16-.35-.11-1-.38-3.86-1.52-14.16-5.67-9.77-3.94-5.44-2.2a3.82,3.82,0,0,1-2.23-2.24,3.86,3.86,0,0,1-.23-1.64,5,5,0,0,1,.45-1.59l5-12.38,2.66-6.55c.23-.56.44-1.1.69-1.68a3.76,3.76,0,0,1,1.21-1.49,3.85,3.85,0,0,1,3.73-.47l25.65,10.46,5.76,2.36,2.76,1.13a4,4,0,0,1,2.31,1.87,3.78,3.78,0,0,1,.32,2.86c-.32.9-.68,1.69-1,2.52l-1.92,4.68-5.83,14.1a3.64,3.64,0,0,1-3.34,2.22A2.84,2.84,0,0,1,481.9,253.54Z"></path></g><g id="Speech_Bubble" data-name="Speech Bubble"><path class="cls-3" d="M615.51,282c0-.42.12-.89.14-1.4v-3.7l-.19-2.25a36.66,36.66,0,0,0-3-11.2,36.22,36.22,0,0,0-9-12.32l-1.63-1.42c-.58-.44-1.19-.86-1.8-1.29a34.89,34.89,0,0,0-13-5.68,37.28,37.28,0,0,0-5-.79c-.86-.09-1.74-.05-2.61-.09H578.1c-.44,0-.88.07-1.33.1a34.67,34.67,0,0,0-10.69,2.36,36.51,36.51,0,0,0-17.88,14.77,37.09,37.09,0,0,0-5.14,24.3q.12.82.27,1.65v.11l-.06.09-11.42,15.86,16.78-2.59h.16l.09.13a36.21,36.21,0,0,0,21.36,15,27.53,27.53,0,0,0,4,.75l2,.25c.66.08,1.32,0,2,.08a36.27,36.27,0,0,0,14.44-2.58,37.3,37.3,0,0,0,10.74-6.61l2-1.93,1.76-2a19.15,19.15,0,0,0,1.53-2,19.82,19.82,0,0,0,1.34-1.93,38,38,0,0,0,3.39-6.9l.9-2.64.47-2,.29-1.21.11-.41a6.32,6.32,0,0,1,0-.65Z"></path><polygon class="cls-8" points="591.05 263.25 595.44 296.5 562.93 296.5 567.66 263.25 591.05 263.25"></polygon><path class="cls-3" d="M570.3,268.08a15.37,15.37,0,0,0,1.7,3.16,8.76,8.76,0,0,0,2.83,2.5,9.31,9.31,0,0,0,4.48,1.08,9.5,9.5,0,0,0,4.5-1,7.71,7.71,0,0,0,2.79-2.52,13.87,13.87,0,0,0,1.5-3.21,2.35,2.35,0,0,1-.13,1,8.78,8.78,0,0,1-1.06,2.45,7.78,7.78,0,0,1-2.91,2.7,9.67,9.67,0,0,1-4.74,1.09,9.5,9.5,0,0,1-4.71-1.18,8.72,8.72,0,0,1-2.9-2.71,9.38,9.38,0,0,1-1.17-2.4A2.38,2.38,0,0,1,570.3,268.08Z"></path></g></svg> 